<svg width="22" height="23" viewBox="0 0 22 23" fill="none" xmlns="http://www.w3.org/2000/svg">
<path fill-rule="evenodd" clip-rule="evenodd" d="M11 22.3556C4.92487 22.3556 0 17.3511 0 11.1778C0 5.00448 4.92487 0 11 0C17.0751 0 22 5.00448 22 11.1778C22 17.3511 17.0751 22.3556 11 22.3556ZM11 20.3233C15.9706 20.3233 20 16.2287 20 11.1778C20 6.12689 15.9706 2.03232 11 2.03232C6.02944 2.03232 2 6.12689 2 11.1778C2 16.2287 6.02944 20.3233 11 20.3233ZM16 10.1617H12V6.09702H10V10.1617H6V12.194H10V16.2587H12V12.194H16V10.1617Z" fill="#FDFDFD"/>
</svg>
