<svg width="31" height="31" viewBox="0 0 31 31" fill="none" xmlns="http://www.w3.org/2000/svg">
<path d="M9.68753 23.9743V29.5469C9.68753 29.6753 9.73856 29.7985 9.8294 29.8894C9.92023 29.9802 10.0434 30.0312 10.1719 30.0312H26.6407C26.7691 30.0312 26.8923 29.9802 26.9832 29.8894C27.074 29.7985 27.125 29.6753 27.125 29.5469V17.9219C27.1247 17.5244 27.0269 17.1331 26.8401 16.7822L23.25 10.0508V1.45312C23.25 1.32466 23.199 1.20146 23.1082 1.11062C23.0173 1.01978 22.8941 0.96875 22.7657 0.96875H10.1719C10.0434 0.96875 9.92023 1.01978 9.8294 1.11062C9.73856 1.20146 9.68753 1.32466 9.68753 1.45312V3.1528L4.21469 4.86585C4.15399 4.88485 4.09761 4.91562 4.0488 4.95641C3.99998 4.9972 3.95968 5.0472 3.93019 5.10357C3.9007 5.15993 3.8826 5.22155 3.87693 5.28491C3.87126 5.34827 3.87812 5.41213 3.89712 5.47283L9.68753 23.9743ZM9.07025 7.40676L8.78078 6.48185L9.68753 6.198V14.2433L7.82837 8.3031L8.75274 8.01368C8.87532 7.97529 8.97764 7.88979 9.03718 7.77597C9.09672 7.66215 9.10862 7.52935 9.07025 7.40676ZM26.1563 17.9219V29.0625H23.25C22.1101 29.0612 21.016 28.614 20.2015 27.8165C19.3871 27.019 18.9169 25.9345 18.8916 24.7949C18.9159 24.6688 18.8892 24.5383 18.8173 24.4319L15.6756 19.7816C15.5669 19.6236 15.4905 19.4455 15.4509 19.2578C15.4113 19.0701 15.4093 18.8764 15.445 18.6879C15.4806 18.4994 15.5533 18.3198 15.6587 18.1595C15.7641 17.9992 15.9003 17.8614 16.0592 17.7539C16.2182 17.6465 16.3969 17.5717 16.5849 17.5337C16.773 17.4957 16.9667 17.4953 17.1549 17.5325C17.3431 17.5698 17.5221 17.6439 17.6815 17.7507C17.8409 17.8575 17.9776 17.9947 18.0836 18.1546C18.0865 18.1588 18.0897 18.163 18.0924 18.1671L20.9202 22.0806C20.9651 22.1427 21.0241 22.1932 21.0922 22.2281C21.1604 22.263 21.2359 22.2812 21.3125 22.2812H22.7657C22.8941 22.2812 23.0173 22.2302 23.1082 22.1394C23.199 22.0485 23.25 21.9253 23.25 21.7969V12.1094L25.9854 17.2381C26.0974 17.4486 26.156 17.6834 26.1563 17.9219ZM13.5625 25.6719H12.5938V5.32812H13.5625C13.691 5.32812 13.8142 5.27709 13.905 5.18625C13.9959 5.09542 14.0469 4.97221 14.0469 4.84375V3.875H18.8907V4.84375C18.8907 4.97221 18.9417 5.09542 19.0325 5.18625C19.1234 5.27709 19.2466 5.32812 19.375 5.32812H20.3438V19.6293L18.8816 17.6056C18.8245 17.5222 18.7622 17.4423 18.6952 17.3666C19.0691 16.9205 19.3003 16.3724 19.359 15.7933C19.4177 15.2142 19.3011 14.6308 19.0244 14.1187C18.7476 13.6067 18.3234 13.1896 17.8068 12.9214C17.2902 12.6532 16.705 12.5464 16.1269 12.6148C15.5489 12.6831 15.0047 12.9235 14.5649 13.3048C14.1251 13.686 13.8099 14.1906 13.6603 14.7531C13.5106 15.3155 13.5333 15.91 13.7254 16.4595C13.9175 17.0089 14.2703 17.488 14.7379 17.8346C14.5333 18.223 14.4377 18.6596 14.4615 19.0979C14.4852 19.5363 14.6273 19.96 14.8726 20.3241L17.9236 24.8397C17.9432 25.6355 18.1421 26.4167 18.5055 27.125H14.0469V26.1562C14.0469 26.0278 13.9959 25.9046 13.905 25.8137C13.8142 25.7229 13.691 25.6719 13.5625 25.6719ZM15.5235 16.9614C15.4656 17.0005 15.4101 17.0422 15.3563 17.0855C15.035 16.8602 14.7897 16.5425 14.6529 16.1747C14.5161 15.8068 14.4943 15.406 14.5903 15.0255C14.6862 14.6449 14.8955 14.3025 15.1904 14.0435C15.4854 13.7845 15.852 13.6212 16.2417 13.5752C16.6315 13.5292 17.0261 13.6026 17.3732 13.7858C17.7203 13.969 18.0036 14.2532 18.1856 14.601C18.3675 14.9487 18.4396 15.3435 18.3923 15.7331C18.3449 16.1228 18.1803 16.4888 17.9203 16.7828C17.5398 16.6015 17.1185 16.5226 16.6982 16.5539C16.2778 16.5852 15.8729 16.7257 15.5235 16.9614ZM10.6563 1.9375H22.2813V21.3125H21.5601L21.3125 20.9699V4.84375C21.3125 4.71529 21.2615 4.59208 21.1707 4.50125C21.0798 4.41041 20.9566 4.35938 20.8282 4.35938H19.8594V3.39062C19.8594 3.26216 19.8084 3.13896 19.7175 3.04812C19.6267 2.95728 19.5035 2.90625 19.375 2.90625H13.5625C13.4341 2.90625 13.3109 2.95728 13.22 3.04812C13.1292 3.13896 13.0782 3.26216 13.0782 3.39062V4.35938H12.1094C11.9809 4.35938 11.8577 4.41041 11.7669 4.50125C11.6761 4.59208 11.625 4.71529 11.625 4.84375V26.1562C11.625 26.2847 11.6761 26.4079 11.7669 26.4988C11.8577 26.5896 11.9809 26.6406 12.1094 26.6406H13.0782V27.6094C13.0782 27.7378 13.1292 27.861 13.22 27.9519C13.3109 28.0427 13.4341 28.0938 13.5625 28.0938H19.1443C19.4489 28.4618 19.8013 28.7876 20.192 29.0625H10.6563V1.9375ZM9.68753 4.16787V5.18281L8.02915 5.70194C7.90655 5.74032 7.80423 5.82582 7.74467 5.93964C7.68512 6.05345 7.67321 6.18627 7.71158 6.30886L8.00105 7.23384L7.07668 7.52319C7.01598 7.5422 6.95962 7.57298 6.91081 7.61377C6.862 7.65456 6.8217 7.70456 6.79222 7.76092C6.76274 7.81729 6.74464 7.87891 6.73897 7.94226C6.7333 8.00562 6.74017 8.06947 6.75918 8.13017L9.68753 17.4867V20.7309L4.96632 5.64569L9.68753 4.16787Z" fill="black"/>
</svg>
