<svg width="31" height="31" viewBox="0 0 31 31" fill="none" xmlns="http://www.w3.org/2000/svg">
<g clip-path="url(#clip0_126_33)">
<path d="M27.6094 3.875H25.1875V2.90625C25.1875 2.39239 24.9834 1.89958 24.62 1.53623C24.2567 1.17288 23.7639 0.96875 23.25 0.96875C22.7361 0.96875 22.2433 1.17288 21.88 1.53623C21.5166 1.89958 21.3125 2.39239 21.3125 2.90625V3.875H17.4375V2.90625C17.4375 2.39239 17.2334 1.89958 16.87 1.53623C16.5067 1.17288 16.0139 0.96875 15.5 0.96875C14.9861 0.96875 14.4933 1.17288 14.13 1.53623C13.7666 1.89958 13.5625 2.39239 13.5625 2.90625V3.875H9.6875V2.90625C9.6875 2.39239 9.48337 1.89958 9.12002 1.53623C8.75667 1.17288 8.26386 0.96875 7.75 0.96875C7.23614 0.96875 6.74333 1.17288 6.37998 1.53623C6.01663 1.89958 5.8125 2.39239 5.8125 2.90625V3.875H3.39062C2.7483 3.875 2.13229 4.13016 1.6781 4.58435C1.22391 5.03854 0.96875 5.65455 0.96875 6.29688V25.6719C0.96875 26.3142 1.22391 26.9302 1.6781 27.3844C2.13229 27.8386 2.7483 28.0938 3.39062 28.0938H16.9531C17.0816 28.0938 17.2048 28.0427 17.2956 27.9519C17.3865 27.861 17.4375 27.7378 17.4375 27.6094C17.4375 27.4809 17.3865 27.3577 17.2956 27.2669C17.2048 27.176 17.0816 27.125 16.9531 27.125H3.39062C3.00559 27.1238 2.63665 26.9704 2.36438 26.6981C2.09212 26.4259 1.93865 26.0569 1.9375 25.6719V10.6562H29.0625V18.8906C29.0625 19.0191 29.1135 19.1423 29.2044 19.2331C29.2952 19.324 29.4184 19.375 29.5469 19.375C29.6753 19.375 29.7985 19.324 29.8894 19.2331C29.9802 19.1423 30.0312 19.0191 30.0312 18.8906V6.29688C30.0312 5.65455 29.7761 5.03854 29.3219 4.58435C28.8677 4.13016 28.2517 3.875 27.6094 3.875ZM22.2812 2.90625C22.2812 2.64932 22.3833 2.40292 22.565 2.22124C22.7467 2.03956 22.9931 1.9375 23.25 1.9375C23.5069 1.9375 23.7533 2.03956 23.935 2.22124C24.1167 2.40292 24.2188 2.64932 24.2188 2.90625V5.8125C24.2188 6.06943 24.1167 6.31583 23.935 6.49751C23.7533 6.67919 23.5069 6.78125 23.25 6.78125C22.9931 6.78125 22.7467 6.67919 22.565 6.49751C22.3833 6.31583 22.2812 6.06943 22.2812 5.8125V2.90625ZM14.5312 2.90625C14.5312 2.64932 14.6333 2.40292 14.815 2.22124C14.9967 2.03956 15.2431 1.9375 15.5 1.9375C15.7569 1.9375 16.0033 2.03956 16.185 2.22124C16.3667 2.40292 16.4688 2.64932 16.4688 2.90625V5.8125C16.4688 6.06943 16.3667 6.31583 16.185 6.49751C16.0033 6.67919 15.7569 6.78125 15.5 6.78125C15.2431 6.78125 14.9967 6.67919 14.815 6.49751C14.6333 6.31583 14.5312 6.06943 14.5312 5.8125V2.90625ZM6.78125 2.90625C6.78125 2.64932 6.88331 2.40292 7.06499 2.22124C7.24667 2.03956 7.49307 1.9375 7.75 1.9375C8.00693 1.9375 8.25333 2.03956 8.43501 2.22124C8.61669 2.40292 8.71875 2.64932 8.71875 2.90625V5.8125C8.71875 6.06943 8.61669 6.31583 8.43501 6.49751C8.25333 6.67919 8.00693 6.78125 7.75 6.78125C7.49307 6.78125 7.24667 6.67919 7.06499 6.49751C6.88331 6.31583 6.78125 6.06943 6.78125 5.8125V2.90625ZM29.0625 9.6875H1.9375V6.29688C1.93865 5.91184 2.09212 5.5429 2.36438 5.27063C2.63665 4.99837 3.00559 4.8449 3.39062 4.84375H5.8125V5.8125C5.8125 6.32636 6.01663 6.81917 6.37998 7.18252C6.74333 7.54587 7.23614 7.75 7.75 7.75C8.26386 7.75 8.75667 7.54587 9.12002 7.18252C9.48337 6.81917 9.6875 6.32636 9.6875 5.8125V4.84375H13.5625V5.8125C13.5625 6.32636 13.7666 6.81917 14.13 7.18252C14.4933 7.54587 14.9861 7.75 15.5 7.75C16.0139 7.75 16.5067 7.54587 16.87 7.18252C17.2334 6.81917 17.4375 6.32636 17.4375 5.8125V4.84375H21.3125V5.8125C21.3125 6.32636 21.5166 6.81917 21.88 7.18252C22.2433 7.54587 22.7361 7.75 23.25 7.75C23.7639 7.75 24.2567 7.54587 24.62 7.18252C24.9834 6.81917 25.1875 6.32636 25.1875 5.8125V4.84375H27.6094C27.9944 4.8449 28.3634 4.99837 28.6356 5.27063C28.9079 5.5429 29.0613 5.91184 29.0625 6.29688V9.6875Z" fill="#0A0A0A" fill-opacity="0.87"/>
<path d="M14.5312 14.0469C14.5312 13.7899 14.4292 13.5435 14.2475 13.3619C14.0658 13.1802 13.8194 13.0781 13.5625 13.0781H11.625C11.3681 13.0781 11.1217 13.1802 10.94 13.3619C10.7583 13.5435 10.6562 13.7899 10.6562 14.0469V15.5C10.6562 15.7569 10.7583 16.0033 10.94 16.185C11.1217 16.3667 11.3681 16.4688 11.625 16.4688H13.5625C13.8194 16.4688 14.0658 16.3667 14.2475 16.185C14.4292 16.0033 14.5312 15.7569 14.5312 15.5V14.0469ZM11.625 15.5V14.0469H13.5625V15.5H11.625Z" fill="#0A0A0A" fill-opacity="0.87"/>
<path d="M8.71875 14.0469C8.71875 13.7899 8.61669 13.5435 8.43501 13.3619C8.25333 13.1802 8.00693 13.0781 7.75 13.0781H5.8125C5.55557 13.0781 5.30917 13.1802 5.12749 13.3619C4.94581 13.5435 4.84375 13.7899 4.84375 14.0469V15.5C4.84375 15.7569 4.94581 16.0033 5.12749 16.185C5.30917 16.3667 5.55557 16.4688 5.8125 16.4688H7.75C8.00693 16.4688 8.25333 16.3667 8.43501 16.185C8.61669 16.0033 8.71875 15.7569 8.71875 15.5V14.0469ZM5.8125 15.5V14.0469H7.75V15.5H5.8125Z" fill="#0A0A0A" fill-opacity="0.87"/>
<path d="M25.1875 16.4688C25.4444 16.4688 25.6908 16.3667 25.8725 16.185C26.0542 16.0033 26.1562 15.7569 26.1562 15.5V14.0469C26.1562 13.7899 26.0542 13.5435 25.8725 13.3619C25.6908 13.1802 25.4444 13.0781 25.1875 13.0781H23.25C22.9931 13.0781 22.7467 13.1802 22.565 13.3619C22.3833 13.5435 22.2812 13.7899 22.2812 14.0469V15.5C22.2812 15.7569 22.3833 16.0033 22.565 16.185C22.7467 16.3667 22.9931 16.4688 23.25 16.4688H25.1875ZM23.25 14.0469H25.1875V15.5H23.25V14.0469Z" fill="#0A0A0A" fill-opacity="0.87"/>
<path d="M14.5312 18.4062C14.5312 18.1493 14.4292 17.9029 14.2475 17.7212C14.0658 17.5396 13.8194 17.4375 13.5625 17.4375H11.625C11.3681 17.4375 11.1217 17.5396 10.94 17.7212C10.7583 17.9029 10.6562 18.1493 10.6562 18.4062V19.8594C10.6562 20.1163 10.7583 20.3627 10.94 20.5444C11.1217 20.7261 11.3681 20.8281 11.625 20.8281H13.5625C13.8194 20.8281 14.0658 20.7261 14.2475 20.5444C14.4292 20.3627 14.5312 20.1163 14.5312 19.8594V18.4062ZM11.625 19.8594V18.4062H13.5625V19.8594H11.625Z" fill="#0A0A0A" fill-opacity="0.87"/>
<path d="M8.71875 18.4062C8.71875 18.1493 8.61669 17.9029 8.43501 17.7212C8.25333 17.5396 8.00693 17.4375 7.75 17.4375H5.8125C5.55557 17.4375 5.30917 17.5396 5.12749 17.7212C4.94581 17.9029 4.84375 18.1493 4.84375 18.4062V19.8594C4.84375 20.1163 4.94581 20.3627 5.12749 20.5444C5.30917 20.7261 5.55557 20.8281 5.8125 20.8281H7.75C8.00693 20.8281 8.25333 20.7261 8.43501 20.5444C8.61669 20.3627 8.71875 20.1163 8.71875 19.8594V18.4062ZM5.8125 19.8594V18.4062H7.75V19.8594H5.8125Z" fill="#0A0A0A" fill-opacity="0.87"/>
<path d="M13.5625 21.7969H11.625C11.3681 21.7969 11.1217 21.8989 10.94 22.0806C10.7583 22.2623 10.6562 22.5087 10.6562 22.7656V24.2188C10.6562 24.4757 10.7583 24.7221 10.94 24.9038C11.1217 25.0854 11.3681 25.1875 11.625 25.1875H13.5625C13.8194 25.1875 14.0658 25.0854 14.2475 24.9038C14.4292 24.7221 14.5312 24.4757 14.5312 24.2188V22.7656C14.5312 22.5087 14.4292 22.2623 14.2475 22.0806C14.0658 21.8989 13.8194 21.7969 13.5625 21.7969ZM11.625 24.2188V22.7656H13.5625V24.2188H11.625Z" fill="#0A0A0A" fill-opacity="0.87"/>
<path d="M17.4375 16.4688H19.375C19.6319 16.4688 19.8783 16.3667 20.06 16.185C20.2417 16.0033 20.3438 15.7569 20.3438 15.5V14.0469C20.3438 13.7899 20.2417 13.5435 20.06 13.3619C19.8783 13.1802 19.6319 13.0781 19.375 13.0781H17.4375C17.1806 13.0781 16.9342 13.1802 16.7525 13.3619C16.5708 13.5435 16.4688 13.7899 16.4688 14.0469V15.5C16.4688 15.7569 16.5708 16.0033 16.7525 16.185C16.9342 16.3667 17.1806 16.4688 17.4375 16.4688ZM17.4375 14.0469H19.375V15.5H17.4375V14.0469Z" fill="#0A0A0A" fill-opacity="0.87"/>
<path d="M16.4688 19.8594C16.4688 20.1163 16.5708 20.3627 16.7525 20.5444C16.9342 20.7261 17.1806 20.8281 17.4375 20.8281C17.566 20.8281 17.6892 20.7771 17.78 20.6863C17.8708 20.5954 17.9219 20.4722 17.9219 20.3438C17.9219 20.2153 17.8708 20.0921 17.78 20.0012C17.6892 19.9104 17.566 19.8594 17.4375 19.8594V18.4062H19.375C19.5035 18.4062 19.6267 18.3552 19.7175 18.2644C19.8083 18.1735 19.8594 18.0503 19.8594 17.9219C19.8594 17.7934 19.8083 17.6702 19.7175 17.5794C19.6267 17.4885 19.5035 17.4375 19.375 17.4375H17.4375C17.1806 17.4375 16.9342 17.5396 16.7525 17.7212C16.5708 17.9029 16.4688 18.1493 16.4688 18.4062V19.8594Z" fill="#0A0A0A" fill-opacity="0.87"/>
<path d="M7.75 21.7969H5.8125C5.55557 21.7969 5.30917 21.8989 5.12749 22.0806C4.94581 22.2623 4.84375 22.5087 4.84375 22.7656V24.2188C4.84375 24.4757 4.94581 24.7221 5.12749 24.9038C5.30917 25.0854 5.55557 25.1875 5.8125 25.1875H7.75C8.00693 25.1875 8.25333 25.0854 8.43501 24.9038C8.61669 24.7221 8.71875 24.4757 8.71875 24.2188V22.7656C8.71875 22.5087 8.61669 22.2623 8.43501 22.0806C8.25333 21.8989 8.00693 21.7969 7.75 21.7969ZM5.8125 24.2188V22.7656H7.75V24.2188H5.8125Z" fill="#0A0A0A" fill-opacity="0.87"/>
<path d="M23.7344 17.4375C22.489 17.4375 21.2715 17.8068 20.236 18.4987C19.2005 19.1906 18.3934 20.1741 17.9168 21.3247C17.4402 22.4753 17.3155 23.7414 17.5585 24.9628C17.8015 26.1843 18.4012 27.3063 19.2818 28.1869C20.1624 29.0676 21.2844 29.6673 22.5059 29.9102C23.7274 30.1532 24.9935 30.0285 26.1441 29.5519C27.2947 29.0753 28.2781 28.2682 28.97 27.2327C29.6619 26.1972 30.0312 24.9798 30.0312 23.7344C30.0293 22.0649 29.3653 20.4644 28.1848 19.2839C27.0043 18.1035 25.4038 17.4394 23.7344 17.4375ZM23.7344 29.0625C22.6806 29.0625 21.6504 28.75 20.7742 28.1645C19.898 27.5791 19.2151 26.7469 18.8118 25.7734C18.4086 24.7998 18.303 23.7285 18.5086 22.6949C18.7142 21.6614 19.2217 20.712 19.9668 19.9668C20.712 19.2217 21.6614 18.7142 22.6949 18.5086C23.7285 18.303 24.7998 18.4086 25.7734 18.8118C26.7469 19.2151 27.5791 19.898 28.1645 20.7742C28.75 21.6504 29.0625 22.6806 29.0625 23.7344C29.0608 25.147 28.4989 26.5012 27.5001 27.5001C26.5012 28.4989 25.147 29.0608 23.7344 29.0625Z" fill="#0A0A0A" fill-opacity="0.87"/>
<path d="M26.533 21.7038L22.7656 25.4713L21.0533 23.7586C20.9619 23.6703 20.8396 23.6215 20.7126 23.6226C20.5856 23.6237 20.4641 23.6747 20.3743 23.7645C20.2845 23.8543 20.2335 23.9758 20.2324 24.1028C20.2313 24.2298 20.2802 24.3521 20.3684 24.4435L22.4231 26.4987C22.5139 26.5895 22.6371 26.6405 22.7656 26.6405C22.894 26.6405 23.0172 26.5895 23.108 26.4987L27.2179 22.3887C27.3062 22.2974 27.355 22.175 27.3539 22.048C27.3528 21.921 27.3018 21.7995 27.212 21.7097C27.1222 21.6199 27.0007 21.569 26.8737 21.5679C26.7467 21.5668 26.6244 21.6156 26.533 21.7038Z" fill="#0A0A0A" fill-opacity="0.87"/>
</g>
<defs>
<clipPath id="clip0_126_33">
<rect width="31" height="31" fill="white"/>
</clipPath>
</defs>
</svg>
