<svg width="24" height="25" viewBox="0 0 24 25" fill="none" xmlns="http://www.w3.org/2000/svg">
<path fill-rule="evenodd" clip-rule="evenodd" d="M12 23.3718C5.92487 23.3718 1 18.3673 1 12.194C1 6.02065 5.92487 1.01617 12 1.01617C18.0751 1.01617 23 6.02065 23 12.194C23 18.3673 18.0751 23.3718 12 23.3718ZM12 21.3395C16.9706 21.3395 21 17.2449 21 12.194C21 7.14307 16.9706 3.0485 12 3.0485C7.02944 3.0485 3 7.14307 3 12.194C3 17.2449 7.02944 21.3395 12 21.3395ZM7 11.1778V13.2101H17V11.1778H7Z" fill="black"/>
</svg>
