<svg width="40" height="40" viewBox="0 0 40 40" fill="none" xmlns="http://www.w3.org/2000/svg">
<circle cx="20" cy="19.9999" r="20" fill="#E21C33"/>
<path d="M25.9365 16.8332L25.3384 18.9938H13.9126L14.5107 16.8332H25.9365ZM20.4067 30.1999L14.2666 22.9611L14.2544 21.1423H17.1719C17.9287 21.1423 18.5513 21.008 19.0396 20.7394C19.536 20.4627 19.9062 20.0925 20.1504 19.6286C20.3945 19.1566 20.5166 18.6317 20.5166 18.0539C20.5166 17.4273 20.4027 16.8739 20.1748 16.3937C19.9469 15.9136 19.5848 15.5392 19.0884 15.2707C18.592 15.0021 17.9368 14.8679 17.123 14.8679H13.9248L14.584 12.4265H17.123C18.5635 12.4265 19.7598 12.6421 20.7119 13.0734C21.6641 13.5047 22.3761 14.1314 22.8481 14.9533C23.3283 15.7752 23.5684 16.7681 23.5684 17.9318C23.5684 18.9491 23.3934 19.8483 23.0435 20.6296C22.6935 21.4027 22.1279 22.0293 21.3467 22.5095C20.5654 22.9815 19.5278 23.2744 18.2339 23.3884L23.8491 30.0412V30.1999H20.4067ZM25.9487 12.4265L25.3384 14.5871H16L16.5981 12.4265H25.9487Z" fill="white"/>
</svg>
