<svg width="31" height="31" viewBox="0 0 31 31" fill="none" xmlns="http://www.w3.org/2000/svg">
<g clip-path="url(#clip0_216_24)">
<path d="M30.0918 10.959H29.0625V4.60156C29.0625 4.09999 28.6559 3.69336 28.1543 3.69336C27.6527 3.69336 27.2461 4.09999 27.2461 4.60156V10.959H25.4297V6.41797C25.4297 5.9164 25.0231 5.50977 24.5215 5.50977C24.0199 5.50977 23.6133 5.9164 23.6133 6.41797V10.959H21.7969V8.23438C21.7969 7.7328 21.3902 7.32617 20.8887 7.32617C20.3871 7.32617 19.9805 7.7328 19.9805 8.23438V10.959H19.0723C18.5707 10.959 18.1641 11.3656 18.1641 11.8672C18.1641 12.3688 18.5707 12.7754 19.0723 12.7754H30.0918C30.5934 12.7754 31 12.3688 31 11.8672C31 11.3656 30.5934 10.959 30.0918 10.959Z" fill="#0A0A0A" fill-opacity="0.87"/>
<path d="M28.1543 14.5918H16.3477V2.78516C16.3477 2.28359 15.941 1.87695 15.4395 1.87695C9.86835 1.87695 4.90993 5.24185 2.82833 10.339L1.93738 10.042C1.4619 9.88349 0.947195 10.1406 0.788563 10.6165C0.265316 12.1869 0 13.8299 0 15.5C0 20.9558 2.84655 25.8328 7.25479 28.5938C7.67916 28.8596 8.24055 28.7319 8.50702 28.3055L9.00441 27.5097C10.9757 28.5675 13.1821 29.123 15.4395 29.123C22.9685 29.123 29.0625 23.03 29.0625 15.5C29.0625 14.9984 28.6559 14.5918 28.1543 14.5918ZM14.5312 3.72793V14.24L4.55549 10.9147C6.26933 6.8375 10.118 4.06457 14.5312 3.72793ZM7.46422 26.5468C3.91139 23.985 1.81641 19.9196 1.81641 15.5C1.81641 14.3319 1.96323 13.1792 2.25368 12.0621L14.058 15.9968L7.46422 26.5468ZM15.4395 27.3066C13.5233 27.3066 11.6501 26.845 9.96959 25.9654L15.9428 16.4082H27.2115C26.7462 22.4957 21.6441 27.3066 15.4395 27.3066Z" fill="#0A0A0A" fill-opacity="0.87"/>
</g>
<defs>
<clipPath id="clip0_216_24">
<rect width="31" height="31" fill="white"/>
</clipPath>
</defs>
</svg>
