<svg width="19" height="19" viewBox="0 0 19 19" fill="none" xmlns="http://www.w3.org/2000/svg">
<circle cx="9.78938" cy="9.78951" r="9.21053" fill="#377DFF"/>
<path d="M13.0167 8.06914L11.5095 6.56195C11.453 6.50544 11.3763 6.47369 11.2964 6.47369C11.2165 6.47369 11.1398 6.50544 11.0833 6.56195L6.56171 11.0835C6.50518 11.14 6.47341 11.2167 6.47339 11.2966V12.8038C6.47339 12.8838 6.50515 12.9605 6.56168 13.017C6.61821 13.0735 6.69488 13.1053 6.77483 13.1053H8.28202C8.36196 13.1053 8.43862 13.0735 8.49514 13.017L13.0167 8.49538C13.0732 8.43885 13.105 8.36219 13.105 8.28226C13.105 8.20233 13.0732 8.12567 13.0167 8.06914ZM8.15722 12.5024H7.07627V11.4214L10.3921 8.10562L11.473 9.18657L8.15722 12.5024ZM11.8993 8.76034L10.8183 7.67938L11.2964 7.2013L12.3774 8.28226L11.8993 8.76034Z" fill="white"/>
<path d="M13.0167 8.06914L11.5095 6.56195C11.453 6.50544 11.3763 6.47369 11.2964 6.47369C11.2165 6.47369 11.1398 6.50544 11.0833 6.56195L6.56171 11.0835C6.50518 11.14 6.47341 11.2167 6.47339 11.2966V12.8038C6.47339 12.8838 6.50515 12.9605 6.56168 13.017C6.61821 13.0735 6.69488 13.1053 6.77483 13.1053H8.28202C8.36196 13.1053 8.43862 13.0735 8.49514 13.017L13.0167 8.49538C13.0732 8.43885 13.105 8.36219 13.105 8.28226C13.105 8.20233 13.0732 8.12567 13.0167 8.06914ZM8.15722 12.5024H7.07627V11.4214L10.3921 8.10562L11.473 9.18657L8.15722 12.5024ZM11.8993 8.76034L10.8183 7.67938L11.2964 7.2013L12.3774 8.28226L11.8993 8.76034Z" fill="url(#paint0_linear_287_107)"/>
<defs>
<linearGradient id="paint0_linear_287_107" x1="9.78918" y1="6.47369" x2="9.78918" y2="13.1053" gradientUnits="userSpaceOnUse">
<stop stop-color="white"/>
<stop offset="1" stop-color="white" stop-opacity="0"/>
</linearGradient>
</defs>
</svg>
