<svg width="31" height="31" viewBox="0 0 31 31" fill="none" xmlns="http://www.w3.org/2000/svg">
<g clip-path="url(#clip0_116_38)">
<path d="M23.4091 17.8609C23.0132 17.8609 22.6437 17.9767 22.3327 18.1762C22.2565 17.1433 21.3916 16.3261 20.3395 16.3261C19.8075 16.3261 19.3233 16.5351 18.9648 16.8752C18.6112 16.3109 17.9836 15.9348 17.2699 15.9348C16.8762 15.9348 16.5087 16.0492 16.199 16.2466V12.4992C16.1982 11.398 15.3017 10.5021 14.2004 10.5021C13.6667 10.5021 13.1649 10.71 12.7872 11.0876C12.4097 11.4651 12.2018 11.967 12.2018 12.5007V18.6153C11.9177 18.2613 11.5321 18.0039 11.0868 17.8764C10.5178 17.7134 9.91927 17.7819 9.40141 18.0692C8.88373 18.3564 8.50883 18.828 8.3459 19.3971C8.18297 19.9661 8.25138 20.5645 8.5385 21.0818C8.86073 21.6631 8.93145 23.0276 8.93145 23.5067C8.93181 23.5817 8.94792 25.3665 9.61133 27.1796C10.5258 29.6789 12.2187 30.9999 14.5073 30.9999H19.0788C20.9908 30.9999 22.6987 30.0565 23.8879 28.3434C24.034 28.1329 23.9818 27.8439 23.7713 27.6978C23.5609 27.5517 23.2718 27.6039 23.1257 27.8143C22.4107 28.8443 21.1283 30.0722 19.0788 30.0722H14.5073C12.6225 30.0722 11.2709 28.9985 10.49 26.8809C9.87694 25.2186 9.85939 23.5188 9.8592 23.5047C9.85932 23.3049 9.84607 21.5269 9.34982 20.6317C9.1829 20.3309 9.14312 19.9831 9.23781 19.6524C9.33257 19.3216 9.55054 19.0473 9.85158 18.8804C10.1527 18.7133 10.5006 18.6736 10.8314 18.7682C11.1622 18.8629 11.4361 19.0809 11.6031 19.382C12.061 20.2074 12.1798 20.6752 12.2019 20.7761V23.4981C12.2019 23.7543 12.4096 23.962 12.6657 23.962C12.9219 23.962 13.1296 23.7543 13.1296 23.4981V12.5007C13.1296 12.2148 13.241 11.9459 13.4433 11.7435C13.6456 11.5412 13.9145 11.4298 14.2003 11.4298C14.7904 11.4298 15.2708 11.9098 15.2712 12.4995V20.5182C15.2712 20.7744 15.4788 20.9821 15.735 20.9821C15.9912 20.9821 16.1989 20.7744 16.1989 20.5182V17.9333C16.1989 17.3428 16.6793 16.8625 17.2698 16.8625C17.8603 16.8625 18.3407 17.3428 18.3407 17.9333V18.3247V20.0185C18.3407 20.2746 18.5484 20.4823 18.8046 20.4823C19.0607 20.4823 19.2684 20.2746 19.2684 20.0185V18.3247C19.2684 17.7342 19.7488 17.2538 20.3394 17.2538C20.9299 17.2538 21.4103 17.7342 21.4103 18.3247V19.8595V20.6609C21.4103 20.9171 21.618 21.1248 21.8742 21.1248C22.1303 21.1248 22.338 20.9171 22.338 20.6609V19.8595C22.338 19.2689 22.8184 18.7886 23.409 18.7886C23.9995 18.7886 24.4799 19.2689 24.4799 19.8595V23.3993C24.4799 24.4746 24.2477 25.5754 23.8086 26.5825C23.7062 26.8174 23.8136 27.0907 24.0484 27.1932C24.2833 27.2956 24.5566 27.1882 24.6591 26.9534C25.1488 25.8302 25.4077 24.6012 25.4077 23.3994V19.8595C25.4077 18.7575 24.5112 17.8609 23.4091 17.8609Z" fill="#0A0A0A" fill-opacity="0.87"/>
<path d="M11.1229 12.4321H4.58596C3.10462 12.4321 1.8995 11.227 1.8995 9.74567V3.61422C1.89944 2.13288 3.10456 0.927758 4.58596 0.927758H7.07171C7.32788 0.927758 7.53555 0.720083 7.53555 0.463909C7.53555 0.207736 7.32788 0 7.07171 0H4.58596C2.593 0 0.97168 1.62132 0.97168 3.61422V9.74567C0.97168 11.7386 2.593 13.3599 4.5859 13.3599H11.1228C11.3791 13.3599 11.5867 13.1522 11.5867 12.896C11.5867 12.6398 11.3791 12.4321 11.1229 12.4321Z" fill="#0A0A0A" fill-opacity="0.87"/>
<path d="M26.4142 0H8.61815C8.36197 0 8.1543 0.207675 8.1543 0.463849C8.1543 0.720022 8.36197 0.927697 8.61815 0.927697H26.4142C27.8956 0.927697 29.1007 2.13282 29.1007 3.61416V9.74561C29.1007 11.2269 27.8956 12.4321 26.4142 12.4321H17.5241C17.268 12.4321 17.0603 12.6397 17.0603 12.8959C17.0603 13.1521 17.268 13.3598 17.5241 13.3598H26.4142C28.4071 13.3598 30.0284 11.7384 30.0284 9.74555V3.61422C30.0284 1.62132 28.4071 0 26.4142 0Z" fill="#0A0A0A" fill-opacity="0.87"/>
<path d="M9.81013 3.36841C9.51115 3.36841 9.22125 3.47715 9.22125 3.73078V6.09543H7.18264V3.73078C7.18264 3.47709 6.88366 3.36841 6.59376 3.36841C6.29478 3.36841 6.00488 3.47715 6.00488 3.73078V9.61986C6.00488 9.86447 6.29484 9.99131 6.59376 9.99131C6.88372 9.99131 7.18264 9.86447 7.18264 9.61986V7.01962H9.22119V9.61986C9.22119 9.86447 9.51115 9.99131 9.81013 9.99131C10.1001 9.99131 10.399 9.86447 10.399 9.61986V3.73078C10.399 3.47709 10.1 3.36841 9.81013 3.36841Z" fill="#0A0A0A" fill-opacity="0.87"/>
<path d="M15.2281 8.95851H12.6641V7.13744H14.0413C14.295 7.13744 14.4127 6.89283 14.4127 6.68443C14.4127 6.43982 14.2769 6.21332 14.0413 6.21332H12.6641V4.40128H15.2281C15.4637 4.40128 15.5996 4.15667 15.5996 3.87579C15.5996 3.63118 15.4818 3.36841 15.2281 3.36841H12.0028C11.7401 3.36841 11.4863 3.49525 11.4863 3.73986V9.6198C11.4863 9.86441 11.74 9.99125 12.0028 9.99125H15.2282C15.4819 9.99125 15.5996 9.72854 15.5996 9.48387C15.5996 9.20312 15.4637 8.95851 15.2281 8.95851Z" fill="#0A0A0A" fill-opacity="0.87"/>
<path d="M19.6768 8.95851H17.4662V3.7309C17.4661 3.47727 17.1671 3.36853 16.8772 3.36853C16.5782 3.36853 16.2883 3.47727 16.2883 3.7309V9.61998C16.2883 9.86459 16.542 9.99144 16.8048 9.99144H19.6769C19.9125 9.99144 20.0302 9.72872 20.0302 9.47497C20.0302 9.2122 19.9124 8.95851 19.6768 8.95851Z" fill="#0A0A0A" fill-opacity="0.87"/>
<path d="M22.9384 3.36841H21.1173C20.8455 3.36841 20.6733 3.54054 20.6733 3.73078V9.61986C20.6733 9.86447 20.9633 9.99131 21.2622 9.99131C21.5522 9.99131 21.8512 9.86447 21.8512 9.61986V7.51792H22.8659C24.0618 7.51792 24.995 6.94708 24.995 5.46127V5.4069C24.995 3.92114 24.089 3.36841 22.9384 3.36841ZM23.8172 5.55191C23.8172 6.25861 23.4549 6.59385 22.8659 6.59385H21.8512V4.40128H22.8659C23.4548 4.40128 23.8172 4.73652 23.8172 5.44322V5.55191Z" fill="#0A0A0A" fill-opacity="0.87"/>
</g>
<defs>
<clipPath id="clip0_116_38">
<rect width="31" height="31" fill="white"/>
</clipPath>
</defs>
</svg>
