<svg width="31" height="31" viewBox="0 0 31 31" fill="none" xmlns="http://www.w3.org/2000/svg">
<g clip-path="url(#clip0_126_29)">
<path d="M15.5001 30.1622C12.6002 30.1622 9.76538 29.3023 7.3542 27.6912C4.94302 26.0801 3.06373 23.7902 1.95399 21.111C0.844244 18.4319 0.553884 15.4838 1.11963 12.6396C1.68537 9.79543 3.0818 7.18288 5.13234 5.13234C7.18288 3.0818 9.79543 1.68537 12.6396 1.11963C15.4838 0.553884 18.4319 0.844244 21.111 1.95399C23.7902 3.06373 26.0801 4.94302 27.6912 7.3542C29.3023 9.76538 30.1622 12.6002 30.1622 15.5001C30.1578 19.3873 28.6116 23.1141 25.8629 25.8629C23.1141 28.6116 19.3873 30.1578 15.5001 30.1622ZM15.5001 1.67573C12.7659 1.67573 10.0931 2.48652 7.81967 4.00555C5.54628 5.52459 3.77438 7.68365 2.72805 10.2097C1.68172 12.7358 1.40795 15.5154 1.94137 18.197C2.47478 20.8787 3.79142 23.342 5.72478 25.2753C7.65815 27.2087 10.1214 28.5253 12.8031 29.0587C15.4847 29.5922 18.2643 29.3184 20.7904 28.2721C23.3165 27.2257 25.4755 25.4538 26.9946 23.1804C28.5136 20.907 29.3244 18.2342 29.3244 15.5001C29.3202 11.8349 27.8623 8.32109 25.2707 5.72944C22.679 3.13779 19.1652 1.67995 15.5001 1.67573Z" fill="#0A0A0A" fill-opacity="0.87"/>
<path d="M15.4999 24.6379C13.7682 24.6384 12.0768 24.115 10.6481 23.1363C9.21947 22.1576 8.12038 20.7695 7.49535 19.1545C6.87032 17.5394 6.74861 15.7731 7.14621 14.0876C7.54381 12.4021 8.44212 10.8764 9.72305 9.71098C9.80515 9.6361 9.91365 9.5969 10.0247 9.60201C10.1357 9.60711 10.2401 9.65611 10.315 9.73821C10.3899 9.82032 10.4291 9.92881 10.424 10.0398C10.4189 10.1508 10.3699 10.2553 10.2878 10.3301C9.1317 11.382 8.32093 12.7589 7.96198 14.2801C7.60304 15.8013 7.71272 17.3955 8.27661 18.8531C8.8405 20.3108 9.83221 21.5638 11.1214 22.4473C12.4106 23.3309 13.937 23.8038 15.4999 23.8038C17.0629 23.8038 18.5893 23.3309 19.8785 22.4473C21.1677 21.5638 22.1594 20.3108 22.7233 18.8531C23.2872 17.3955 23.3968 15.8013 23.0379 14.2801C22.679 12.7589 21.8682 11.382 20.7121 10.3301C20.63 10.2553 20.581 10.1508 20.5759 10.0398C20.5708 9.92881 20.61 9.82032 20.6849 9.73821C20.7598 9.65611 20.8642 9.60711 20.9752 9.60201C21.0862 9.5969 21.1947 9.6361 21.2768 9.71098C22.5578 10.8764 23.4561 12.4021 23.8537 14.0876C24.2513 15.7731 24.1296 17.5394 23.5045 19.1545C22.8795 20.7695 21.7804 22.1576 20.3517 23.1363C18.9231 24.115 17.2317 24.6384 15.4999 24.6379Z" fill="#0A0A0A" fill-opacity="0.87"/>
<path d="M15.5 14.5168C15.3889 14.5168 15.2823 14.4726 15.2038 14.3941C15.1252 14.3155 15.0811 14.2089 15.0811 14.0978V5.94358C15.0811 5.83247 15.1252 5.72592 15.2038 5.64736C15.2823 5.56879 15.3889 5.52466 15.5 5.52466C15.6111 5.52466 15.7176 5.56879 15.7962 5.64736C15.8748 5.72592 15.9189 5.83247 15.9189 5.94358V14.0978C15.9189 14.2089 15.8748 14.3155 15.7962 14.3941C15.7176 14.4726 15.6111 14.5168 15.5 14.5168Z" fill="#0A0A0A" fill-opacity="0.87"/>
</g>
<defs>
<clipPath id="clip0_126_29">
<rect width="31" height="31" fill="white"/>
</clipPath>
</defs>
</svg>
