<svg width="251" height="294" viewBox="0 0 251 294" fill="none" xmlns="http://www.w3.org/2000/svg">
<g clip-path="url(#clip0_168_22)">
<path d="M247.313 154.695V255.321C247.313 264.054 241.269 271.135 233.812 271.135H116.195V138.886H233.812C241.269 138.886 247.313 145.966 247.313 154.695Z" fill="#FF7680"/>
<path d="M247.313 154.695V255.321C247.313 264.054 241.269 271.135 233.812 271.135H116.195V258.502H221.066C228.523 258.502 234.567 251.422 234.567 242.688V154.695C234.567 145.966 228.523 138.886 221.066 138.886H233.812C241.269 138.886 247.313 145.966 247.313 154.695Z" fill="#F44D90"/>
<path d="M130.902 226.874H247.313V246.834H130.902V226.874Z" fill="#46637F"/>
<path d="M247.313 226.874V246.834H234.092C234.405 245.513 234.567 244.123 234.567 242.688V226.874H247.313Z" fill="#234063"/>
<path d="M18.3926 281.08C18.3926 285.837 21.685 289.693 25.7461 289.693C29.8072 289.693 33.0996 285.837 33.0996 281.08V271.135H18.3926V281.08Z" fill="#46637F"/>
<path d="M121.342 271.135V281.08C121.342 285.837 124.634 289.693 128.695 289.693C132.756 289.693 136.049 285.837 136.049 281.08V271.135H121.342Z" fill="#46637F"/>
<path d="M233.814 271.135H219.107V281.08C219.107 285.837 222.399 289.693 226.46 289.693C230.521 289.693 233.814 285.837 233.814 281.08V271.135Z" fill="#46637F"/>
<path d="M150.757 68.7454V255.321C150.757 264.054 144.712 271.135 137.256 271.135H17.1876C9.73114 271.135 3.68655 264.054 3.68655 255.321V68.7454C3.68655 60.0116 9.73114 52.9315 17.1876 52.9315H137.256C144.712 52.9315 150.757 60.0116 150.757 68.7454Z" fill="#FFFF4D"/>
<path d="M150.757 68.7454V255.321C150.757 264.054 144.712 271.135 137.256 271.135H17.1876C9.73114 271.135 3.68655 264.054 3.68655 255.321V253.908H122.549C130.005 253.908 136.05 246.828 136.05 238.094V68.7454C136.05 60.0116 130.005 52.9315 122.549 52.9315H137.256C144.712 52.9315 150.757 60.0116 150.757 68.7454Z" fill="#FFE150"/>
<path d="M18.3936 158.013H136.05V253.908H18.3936V158.013Z" fill="#F7904B"/>
<path d="M136.05 158.013V253.908H18.3936V241.275H113.229C119.74 241.275 125.015 235.097 125.015 227.471V158.013H136.05Z" fill="#F25D40"/>
<path d="M52.709 95.9571H101.732V113.184H52.709V95.9571Z" fill="#46637F"/>
<path d="M209.737 164.09V190.505H192.089V164.09L200.913 153.561L209.737 164.09Z" fill="#D8E5EF"/>
<path d="M137.255 48.6254H108.159V8.61328H114.287C116.318 8.61328 117.964 6.68505 117.964 4.30664C117.964 1.92823 116.318 0 114.287 0H40.1534C38.1229 0 36.4767 1.92823 36.4767 4.30664C36.4767 6.68505 38.1229 8.61328 40.1534 8.61328H46.2814V48.6254H17.186C7.71414 48.6254 0.00863647 57.651 0.00863647 68.7455V255.321C0.00863647 265.433 6.41012 273.827 14.7157 275.234V281.08C14.7157 288.204 19.6636 294 25.7459 294C31.8283 294 36.7762 288.204 36.7762 281.08V275.442H117.665V281.08C117.665 288.204 122.613 294 128.695 294C134.777 294 139.725 288.204 139.725 281.08V275.234C148.031 273.827 154.432 265.433 154.432 255.321V101.53C154.432 99.1515 152.787 97.2233 150.756 97.2233C148.725 97.2233 147.079 99.1515 147.079 101.53V255.321C147.079 261.666 142.672 266.829 137.255 266.829H17.186C11.7694 266.829 7.36215 261.666 7.36215 255.321V68.7455C7.36215 62.4004 11.7694 57.2387 17.186 57.2387H137.255C142.672 57.2387 147.078 62.4004 147.078 68.7455V81.3697C147.078 83.7481 148.724 85.6763 150.755 85.6763C152.786 85.6763 154.432 83.7481 154.432 81.3697V68.7455C154.432 57.651 146.726 48.6254 137.255 48.6254ZM132.371 275.442V281.08C132.371 283.455 130.722 285.387 128.695 285.387C126.668 285.387 125.018 283.455 125.018 281.08V275.442H132.371ZM29.4227 275.442V281.08C29.4227 283.455 27.7736 285.387 25.7459 285.387C23.7183 285.387 22.0692 283.455 22.0692 281.08V275.442H29.4227ZM53.6349 8.61328H100.806V48.6254H53.6349V8.61328Z" fill="black"/>
<path d="M49.9014 258.215H136.049C138.08 258.215 139.726 256.287 139.726 253.909V158.014C139.726 155.636 138.08 153.707 136.049 153.707H18.3926C16.362 153.707 14.7158 155.636 14.7158 158.014V253.909C14.7158 256.287 16.362 258.215 18.3926 258.215H33.0996C35.1302 258.215 36.7764 256.287 36.7764 253.909C36.7764 251.53 35.1302 249.602 33.0996 249.602H22.0694V162.321H132.372V249.602H49.9014C47.8709 249.602 46.2247 251.53 46.2247 253.909C46.2247 256.287 47.8709 258.215 49.9014 258.215Z" fill="black"/>
<path d="M109.576 197.632C111.607 197.632 113.253 195.704 113.253 193.326V179.337H121.342C123.372 179.337 125.019 177.409 125.019 175.03C125.019 172.652 123.372 170.724 121.342 170.724H33.0996C31.0691 170.724 29.4229 172.652 29.4229 175.03C29.4229 177.409 31.0691 179.337 33.0996 179.337H105.899V193.326C105.899 195.704 107.546 197.632 109.576 197.632Z" fill="black"/>
<path d="M101.732 117.49C103.763 117.49 105.409 115.562 105.409 113.184V95.9571C105.409 93.5787 103.763 91.6505 101.732 91.6505H52.709C50.6784 91.6505 49.0322 93.5787 49.0322 95.9571V113.184C49.0322 115.562 50.6784 117.49 52.709 117.49H101.732ZM56.3858 100.264H98.0557V108.877H56.3858V100.264Z" fill="black"/>
<path d="M233.813 134.577H204.59V118.193C204.59 110.639 199.343 104.494 192.894 104.494H165.22C163.189 104.494 161.543 106.422 161.543 108.801C161.543 111.179 163.189 113.107 165.22 113.107H192.894C195.288 113.107 197.236 115.389 197.236 118.193V134.577H165.219C163.188 134.577 161.543 136.506 161.543 138.884C161.543 141.262 163.188 143.191 165.219 143.191H197.236V151.8L189.464 161.074C188.79 161.879 188.412 162.962 188.412 164.09V190.505C188.412 192.883 190.058 194.811 192.089 194.811H209.737C211.768 194.811 213.414 192.883 213.414 190.505V164.09C213.414 162.962 213.036 161.879 212.361 161.074L204.59 151.8V143.191H233.813C239.231 143.191 243.638 148.352 243.638 154.697V222.567H231.129C229.098 222.567 227.452 224.495 227.452 226.873C227.452 229.252 229.098 231.18 231.129 231.18H243.638V242.529H165.219C163.188 242.529 161.543 244.457 161.543 246.835C161.543 249.214 163.188 251.142 165.219 251.142H243.638V255.322C243.638 261.667 239.231 266.829 233.813 266.829H165.219C163.188 266.829 161.543 268.757 161.543 271.136C161.543 273.514 163.188 275.442 165.219 275.442H215.43V281.081C215.43 288.205 220.378 294.001 226.46 294.001C232.542 294.001 237.49 288.205 237.49 281.081V274.978C245.202 273.001 250.991 264.939 250.991 255.322V154.697C250.991 143.603 243.285 134.577 233.813 134.577ZM206.06 186.198H195.765V165.851L200.913 159.709L206.06 165.851V186.198ZM230.137 281.08C230.137 283.455 228.488 285.387 226.46 285.387C224.432 285.387 222.783 283.455 222.783 281.08V275.442H230.137V281.08Z" fill="black"/>
<path d="M165.219 231.18H214.138C216.169 231.18 217.815 229.252 217.815 226.873C217.815 224.495 216.169 222.567 214.138 222.567H165.219C163.188 222.567 161.543 224.495 161.543 226.873C161.543 229.252 163.189 231.18 165.219 231.18Z" fill="black"/>
</g>
<defs>
<clipPath id="clip0_168_22">
<rect width="251" height="294" fill="white"/>
</clipPath>
</defs>
</svg>
