<svg width="31" height="31" viewBox="0 0 31 31" fill="none" xmlns="http://www.w3.org/2000/svg">
<path d="M9.96948 2.42236H21.0301V6.40786H9.96948V2.42236Z" fill="#C4E1FF"/>
<path d="M19.2454 2.42249H21.0303V6.40768H19.2454V2.42249Z" fill="#8DCAFC"/>
<path d="M9.96948 2.42236H21.0301V4.25845H9.96948V2.42236Z" fill="#8DCAFC"/>
<path d="M21.3659 2.94173H9.63374C9.23721 2.94173 8.91577 2.62029 8.91577 2.22377V1.17207C8.91577 0.775545 9.23721 0.454102 9.63374 0.454102H21.366C21.7625 0.454102 22.0839 0.775545 22.0839 1.17207V2.22377C22.0839 2.62029 21.7624 2.94173 21.3659 2.94173Z" fill="#EAF6FF"/>
<path d="M22.0838 1.17219V2.22389C22.0838 2.62047 21.7623 2.94197 21.3663 2.94197H19.6667C20.0633 2.94197 20.3848 2.62047 20.3848 2.22389V1.17219C20.3848 0.775605 20.0633 0.454102 19.6667 0.454102H21.3663C21.7623 0.454102 22.0838 0.775605 22.0838 1.17219Z" fill="#C4E1FF"/>
<path d="M24.7072 12.0204V29.1098C24.7072 29.9029 24.0642 30.5459 23.271 30.5459H7.72865C6.93549 30.5459 6.29248 29.9029 6.29248 29.1098V12.0204C6.29248 11.108 6.73084 10.2555 7.46164 9.70812C9.53719 8.15328 9.96949 6.40771 9.96949 6.40771H21.0302C21.0302 6.40771 21.4625 8.15328 23.5386 9.70812C24.2688 10.2555 24.7072 11.108 24.7072 12.0204Z" fill="#EAF6FF"/>
<path d="M21.6817 17.8705H20.3848V17.8045C20.3848 17.4079 20.0633 17.0864 19.6667 17.0864H11.333C10.9364 17.0864 10.6149 17.4079 10.6149 17.8045V17.8705H9.31801C8.13189 17.8705 7.059 17.3789 6.29248 16.5881V17.7882C7.14074 18.4112 8.1876 18.7787 9.31801 18.7787H10.6148V19.2478C10.6148 19.6443 10.9362 19.9657 11.3328 19.9657H19.6668C20.0633 19.9657 20.3848 19.6443 20.3848 19.2478V18.7787H21.6817C22.8121 18.7787 23.8589 18.4112 24.7072 17.7882V16.5881C23.9407 17.3789 22.8678 17.8705 21.6817 17.8705Z" fill="#C4E1FF"/>
<path d="M24.7073 12.0204V29.1098C24.7073 29.9029 24.0643 30.5459 23.2711 30.5459H21.4868C22.2794 30.5459 22.9224 29.9029 22.9224 29.1098V12.0204C22.9224 11.108 22.484 10.2555 21.7538 9.70812C19.6777 8.15328 19.2454 6.40771 19.2454 6.40771H21.0303C21.0303 6.40771 21.4626 8.15328 23.5387 9.70812C24.2689 10.2555 24.7073 11.108 24.7073 12.0204Z" fill="#C4E1FF"/>
<path d="M19.667 18.417H11.333C10.9364 18.417 10.615 18.0956 10.615 17.6991V16.6589C10.615 16.2624 10.9364 15.9409 11.333 15.9409H19.667C20.0635 15.9409 20.385 16.2624 20.385 16.6589V17.6991C20.385 18.0956 20.0635 18.417 19.667 18.417Z" fill="#31A7FB"/>
<path d="M20.3851 16.6591V17.6988C20.3851 18.0958 20.0634 18.4167 19.6671 18.4167H17.9238C18.3209 18.4167 18.6418 18.0958 18.6418 17.6988V16.6591C18.6418 16.2621 18.3208 15.9412 17.9238 15.9412H19.6671C20.0634 15.9412 20.3851 16.2621 20.3851 16.6591Z" fill="#1C96F9"/>
<path d="M24.9182 4.27001H21.4843V3.38984C22.0752 3.33032 22.538 2.83008 22.538 2.22377V1.17207C22.5381 0.525789 22.0123 0 21.366 0H9.63378C8.98751 0 8.46172 0.525789 8.46172 1.17207V2.22377C8.46172 2.83014 8.92454 3.33032 9.51547 3.38984V4.27001H6.0815C5.0393 4.27001 4.19141 5.11785 4.19141 6.16004V12.5063C4.19141 13.9388 4.78973 15.301 5.8384 16.2708V29.1099C5.8384 30.1521 6.6863 31 7.72849 31H23.2712C24.3134 31 25.1613 30.1521 25.1613 29.1099V24.9608C25.1613 24.71 24.958 24.5067 24.7072 24.5067C24.4564 24.5067 24.2531 24.71 24.2531 24.9608V29.1099C24.2531 29.6513 23.8126 30.0918 23.2712 30.0918H7.72849C7.18708 30.0918 6.74661 29.6513 6.74661 29.1099V16.9412C7.52318 17.3911 8.41104 17.6331 9.31821 17.6331H10.1608V17.6991C10.1608 18.3453 10.6866 18.8711 11.3328 18.8711H19.6669C20.3132 18.8711 20.839 18.3453 20.839 17.6991V17.6331H21.6815C22.5879 17.6331 23.4764 17.3905 24.2531 16.9406V22.9832C24.2531 23.234 24.4564 23.4373 24.7072 23.4373C24.958 23.4373 25.1613 23.234 25.1613 22.9832V16.2709C26.21 15.3012 26.8083 13.9387 26.8083 12.5063V6.1601C26.8083 5.11791 25.9604 4.27001 24.9182 4.27001ZM10.2959 6.86202H20.7039C20.8913 7.34797 21.3445 8.28081 22.3196 9.25411H8.68017C9.65528 8.28081 10.1084 7.34797 10.2959 6.86202ZM9.36986 2.22377V1.17207C9.36986 1.02657 9.48823 0.908203 9.63372 0.908203H21.366C21.5114 0.908203 21.6298 1.02657 21.6298 1.17207V2.22377C21.6298 2.36926 21.5114 2.48763 21.366 2.48763H18.1883C17.9375 2.48763 17.7342 2.69095 17.7342 2.94173C17.7342 3.19252 17.9375 3.39583 18.1883 3.39583H20.5761V5.95382H10.4237V3.39583H16.2108C16.4616 3.39583 16.6649 3.19252 16.6649 2.94173C16.6649 2.69095 16.4616 2.48763 16.2108 2.48763H9.63378C9.48823 2.48763 9.36986 2.36926 9.36986 2.22377ZM5.09961 12.5063V6.1601C5.09961 5.61869 5.54009 5.17827 6.0815 5.17827H9.51547V6.34519C9.43234 6.61717 8.92956 8.04117 7.18914 9.34487C7.18478 9.34813 7.18073 9.35171 7.17643 9.35498C7.17461 9.35643 7.17273 9.35788 7.17092 9.3594C6.3364 9.99362 5.83846 10.9864 5.83846 12.0207V14.8894C5.36214 14.194 5.09961 13.3658 5.09961 12.5063ZM21.6815 16.7249H20.839V16.6589C20.839 16.0126 20.3132 15.4868 19.6669 15.4868H14.7651C14.5143 15.4868 14.311 15.6901 14.311 15.9409C14.311 16.1917 14.5143 16.395 14.7651 16.395H19.6669C19.8124 16.395 19.9307 16.5134 19.9307 16.6589V17.6991C19.9307 17.8446 19.8124 17.9629 19.6669 17.9629H11.3328C11.1874 17.9629 11.069 17.8446 11.069 17.6991V16.6589C11.069 16.5134 11.1874 16.395 11.3328 16.395H12.7877C13.0385 16.395 13.2418 16.1917 13.2418 15.9409C13.2418 15.6901 13.0385 15.4868 12.7877 15.4868H11.3328C10.6866 15.4868 10.1608 16.0126 10.1608 16.6589V16.7249H9.31821C8.38724 16.7249 7.48098 16.4154 6.74661 15.8504V12.0206C6.74661 11.3109 7.07053 10.6266 7.61975 10.1624H23.3799C23.9291 10.6266 24.2531 11.311 24.2531 12.0206V15.8498C23.519 16.4148 22.6118 16.7249 21.6815 16.7249ZM25.9001 12.5063C25.9001 13.3657 25.6376 14.1939 25.1613 14.8893V12.0207C25.1613 10.9864 24.6634 9.99356 23.8288 9.35934C23.8271 9.35788 23.8252 9.35649 23.8235 9.3551C23.8191 9.35177 23.815 9.34813 23.8106 9.34487C22.0847 8.05213 21.5689 6.6139 21.4843 6.34386V5.17833H24.9182C25.4596 5.17833 25.9001 5.61875 25.9001 6.16016V12.5063Z" fill="black"/>
</svg>
