<svg width="31" height="31" viewBox="0 0 31 31" fill="none" xmlns="http://www.w3.org/2000/svg">
<path d="M22.7656 18.4062C22.3824 18.4062 22.0078 18.5199 21.6892 18.7328C21.3706 18.9457 21.1223 19.2483 20.9756 19.6023C20.829 19.9563 20.7906 20.3459 20.8654 20.7217C20.9401 21.0976 21.1246 21.4428 21.3956 21.7138C21.6666 21.9847 22.0118 22.1693 22.3876 22.244C22.7635 22.3188 23.153 22.2804 23.5071 22.1338C23.8611 21.9871 24.1637 21.7388 24.3766 21.4202C24.5895 21.1016 24.7031 20.727 24.7031 20.3438C24.7025 19.8301 24.4982 19.3376 24.135 18.9744C23.7718 18.6111 23.2793 18.4068 22.7656 18.4062ZM22.7656 21.3125C22.574 21.3125 22.3867 21.2557 22.2274 21.1492C22.0681 21.0428 21.9439 20.8915 21.8706 20.7145C21.7973 20.5375 21.7781 20.3427 21.8155 20.1548C21.8529 19.9668 21.9451 19.7942 22.0806 19.6587C22.2161 19.5233 22.3887 19.431 22.5766 19.3936C22.7645 19.3562 22.9593 19.3754 23.1363 19.4487C23.3134 19.5221 23.4647 19.6462 23.5711 19.8055C23.6776 19.9649 23.7344 20.1522 23.7344 20.3438C23.7341 20.6006 23.6319 20.8468 23.4503 21.0284C23.2687 21.21 23.0225 21.3122 22.7656 21.3125Z" fill="black"/>
<path d="M27.125 13.5624H26.1562V9.20307C26.1575 8.84748 26.0798 8.49605 25.9287 8.17415C25.7776 7.85224 25.557 7.56789 25.2827 7.34161L23.2019 3.17992C23.0147 2.80692 22.6873 2.52337 22.2913 2.39147C21.8954 2.25956 21.4633 2.29007 21.0899 2.47631L18.6229 3.70947L18.3653 3.1944C18.272 3.00775 18.1425 2.84152 17.9843 2.70538C17.8262 2.56924 17.6425 2.4659 17.4441 2.40137C17.2456 2.33685 17.0363 2.31242 16.8284 2.32951C16.6204 2.34661 16.4179 2.40489 16.2326 2.50095L7.97784 6.78119H4.35938C3.71728 6.78191 3.10168 7.03731 2.64765 7.49134C2.19361 7.94537 1.93822 8.56097 1.9375 9.20307V27.6093C1.93822 28.2514 2.19361 28.867 2.64765 29.321C3.10168 29.7751 3.71728 30.0305 4.35938 30.0312H23.7344C24.3765 30.0305 24.9921 29.7751 25.4461 29.321C25.9001 28.867 26.1555 28.2514 26.1562 27.6093V24.2187H27.125C27.6387 24.2181 28.1312 24.0138 28.4944 23.6506C28.8576 23.2873 29.0619 22.7949 29.0625 22.2812V15.4999C29.0619 14.9863 28.8576 14.4938 28.4944 14.1306C28.1312 13.7673 27.6387 13.563 27.125 13.5624ZM27.125 14.5312C27.3819 14.5312 27.6283 14.6333 27.81 14.8149C27.9917 14.9966 28.0938 15.243 28.0938 15.4999C28.0938 15.7569 27.9917 16.0033 27.81 16.185C27.6283 16.3666 27.3819 16.4687 27.125 16.4687H26.1562V14.5312H27.125ZM23.5689 6.08018L20.5604 7.58447L20.0248 6.51345L23.0334 5.00917L23.5689 6.08018ZM21.1275 8.71869L20.9936 8.45095L24.0021 6.94667L24.8882 8.71869H21.1275ZM21.5231 3.34243C21.6668 3.27071 21.8331 3.25895 21.9854 3.30973C22.1378 3.36051 22.2638 3.46967 22.3357 3.61326L22.6005 4.14268L19.5916 5.64697L19.0561 4.57595L21.5231 3.34243ZM16.6786 3.36096C16.7498 3.324 16.8277 3.30157 16.9077 3.29497C16.9877 3.28837 17.0682 3.29774 17.1445 3.32253C17.2208 3.34731 17.2915 3.38703 17.3523 3.43936C17.4131 3.4917 17.463 3.5556 17.4989 3.62737L20.0444 8.71869H19.19L17.8707 6.08018C17.842 6.02276 17.8021 5.97163 17.7535 5.92975C17.7048 5.88787 17.6483 5.85609 17.5872 5.83625C17.5262 5.81641 17.4618 5.8089 17.3978 5.81417C17.3338 5.81944 17.2715 5.83737 17.2145 5.86693L16.9531 6.00226C16.692 6.13765 16.3889 6.16792 16.1061 6.08685C15.8233 6.00578 15.5823 5.81952 15.4325 5.56632C15.3701 5.46076 15.27 5.38277 15.1524 5.3481C15.0348 5.31342 14.9085 5.32463 14.7988 5.37947L8.12006 8.71869H6.34604L16.6786 3.36096ZM18.1069 8.71869H10.2862L14.8724 6.4256C15.1652 6.73948 15.5464 6.95716 15.9655 7.04989C16.3847 7.14262 16.8221 7.10604 17.22 6.94497L18.1069 8.71869ZM4.35938 7.74994H6.10954L4.13638 8.77318C4.04012 8.82316 3.96342 8.90401 3.91857 9.00276C3.87371 9.10152 3.8633 9.21247 3.889 9.31785C3.91471 9.42322 3.97503 9.51692 4.06032 9.58393C4.1456 9.65095 4.25091 9.6874 4.35938 9.68744H25.1875V10.6562H4.35938C3.97398 10.6562 3.60437 10.5031 3.33186 10.2306C3.05935 9.95807 2.90625 9.58846 2.90625 9.20307C2.90625 8.81767 3.05935 8.44807 3.33186 8.17555C3.60437 7.90304 3.97398 7.74994 4.35938 7.74994ZM25.1875 27.6093C25.1871 27.9946 25.0338 28.3639 24.7614 28.6364C24.489 28.9088 24.1196 29.062 23.7344 29.0624H4.35938C3.97412 29.062 3.60476 28.9088 3.33234 28.6364C3.05992 28.3639 2.90668 27.9946 2.90625 27.6093V27.1249H3.39062C3.51909 27.1249 3.64229 27.0739 3.73313 26.9831C3.82397 26.8922 3.875 26.769 3.875 26.6406C3.875 26.5121 3.82397 26.3889 3.73313 26.2981C3.64229 26.2072 3.51909 26.1562 3.39062 26.1562H2.90625V14.5312H3.39062C3.51909 14.5312 3.64229 14.4802 3.73313 14.3893C3.82397 14.2985 3.875 14.1753 3.875 14.0468C3.875 13.9184 3.82397 13.7951 3.73313 13.7043C3.64229 13.6135 3.51909 13.5624 3.39062 13.5624H2.90625V11.1392C3.32486 11.455 3.83505 11.6255 4.35938 11.6249H25.1875V16.4687H22.7656C21.7379 16.4687 20.7523 16.877 20.0256 17.6037C19.2989 18.3304 18.8906 19.316 18.8906 20.3437C18.8906 21.3714 19.2989 22.357 20.0256 23.0837C20.7523 23.8104 21.7379 24.2187 22.7656 24.2187H25.1875V27.6093ZM27.125 23.2499H22.7656C21.9948 23.2499 21.2556 22.9437 20.7106 22.3987C20.1656 21.8537 19.8594 21.1145 19.8594 20.3437C19.8594 19.5729 20.1656 18.8337 20.7106 18.2887C21.2556 17.7436 21.9948 17.4374 22.7656 17.4374H27.125C27.4653 17.4377 27.7995 17.3478 28.0938 17.1768V22.2812C28.0934 22.538 27.9913 22.7843 27.8097 22.9659C27.6281 23.1475 27.3818 23.2496 27.125 23.2499Z" fill="black"/>
<path d="M6.78125 26.1562H5.32812C5.19966 26.1562 5.07646 26.2073 4.98562 26.2981C4.89478 26.389 4.84375 26.5122 4.84375 26.6406C4.84375 26.7691 4.89478 26.8923 4.98562 26.9831C5.07646 27.074 5.19966 27.125 5.32812 27.125H6.78125C6.90971 27.125 7.03292 27.074 7.12375 26.9831C7.21459 26.8923 7.26562 26.7691 7.26562 26.6406C7.26562 26.5122 7.21459 26.389 7.12375 26.2981C7.03292 26.2073 6.90971 26.1562 6.78125 26.1562Z" fill="black"/>
<path d="M10.1719 26.1562H8.71875C8.59029 26.1562 8.46708 26.2073 8.37624 26.2981C8.28541 26.389 8.23438 26.5122 8.23438 26.6406C8.23438 26.7691 8.28541 26.8923 8.37624 26.9831C8.46708 27.074 8.59029 27.125 8.71875 27.125H10.1719C10.3003 27.125 10.4235 27.074 10.5144 26.9831C10.6052 26.8923 10.6562 26.7691 10.6562 26.6406C10.6562 26.5122 10.6052 26.389 10.5144 26.2981C10.4235 26.2073 10.3003 26.1562 10.1719 26.1562Z" fill="black"/>
<path d="M13.5625 26.1562H12.1094C11.9809 26.1562 11.8577 26.2073 11.7669 26.2981C11.676 26.389 11.625 26.5122 11.625 26.6406C11.625 26.7691 11.676 26.8923 11.7669 26.9831C11.8577 27.074 11.9809 27.125 12.1094 27.125H13.5625C13.691 27.125 13.8142 27.074 13.905 26.9831C13.9958 26.8923 14.0469 26.7691 14.0469 26.6406C14.0469 26.5122 13.9958 26.389 13.905 26.2981C13.8142 26.2073 13.691 26.1562 13.5625 26.1562Z" fill="black"/>
<path d="M16.9531 26.1562H15.5C15.3715 26.1562 15.2483 26.2073 15.1575 26.2981C15.0667 26.389 15.0156 26.5122 15.0156 26.6406C15.0156 26.7691 15.0667 26.8923 15.1575 26.9831C15.2483 27.074 15.3715 27.125 15.5 27.125H16.9531C17.0816 27.125 17.2048 27.074 17.2956 26.9831C17.3865 26.8923 17.4375 26.7691 17.4375 26.6406C17.4375 26.5122 17.3865 26.389 17.2956 26.2981C17.2048 26.2073 17.0816 26.1562 16.9531 26.1562Z" fill="black"/>
<path d="M20.3438 26.1562H18.8906C18.7622 26.1562 18.639 26.2073 18.5481 26.2981C18.4573 26.389 18.4062 26.5122 18.4062 26.6406C18.4062 26.7691 18.4573 26.8923 18.5481 26.9831C18.639 27.074 18.7622 27.125 18.8906 27.125H20.3438C20.4722 27.125 20.5954 27.074 20.6863 26.9831C20.7771 26.8923 20.8281 26.7691 20.8281 26.6406C20.8281 26.5122 20.7771 26.389 20.6863 26.2981C20.5954 26.2073 20.4722 26.1562 20.3438 26.1562Z" fill="black"/>
<path d="M21.7969 26.6406C21.7969 26.7691 21.8479 26.8923 21.9387 26.9831C22.0296 27.074 22.1528 27.125 22.2812 27.125H23.7344C23.8628 27.125 23.986 27.074 24.0769 26.9831C24.1677 26.8923 24.2188 26.7691 24.2188 26.6406C24.2188 26.5122 24.1677 26.389 24.0769 26.2981C23.986 26.2073 23.8628 26.1562 23.7344 26.1562H22.2812C22.1528 26.1562 22.0296 26.2073 21.9387 26.2981C21.8479 26.389 21.7969 26.5122 21.7969 26.6406Z" fill="black"/>
<path d="M6.78125 13.5625H5.32812C5.19966 13.5625 5.07646 13.6135 4.98562 13.7044C4.89478 13.7952 4.84375 13.9184 4.84375 14.0469C4.84375 14.1753 4.89478 14.2985 4.98562 14.3894C5.07646 14.4802 5.19966 14.5312 5.32812 14.5312H6.78125C6.90971 14.5312 7.03292 14.4802 7.12375 14.3894C7.21459 14.2985 7.26562 14.1753 7.26562 14.0469C7.26562 13.9184 7.21459 13.7952 7.12375 13.7044C7.03292 13.6135 6.90971 13.5625 6.78125 13.5625Z" fill="black"/>
<path d="M10.1719 13.5625H8.71875C8.59029 13.5625 8.46708 13.6135 8.37624 13.7044C8.28541 13.7952 8.23438 13.9184 8.23438 14.0469C8.23438 14.1753 8.28541 14.2985 8.37624 14.3894C8.46708 14.4802 8.59029 14.5312 8.71875 14.5312H10.1719C10.3003 14.5312 10.4235 14.4802 10.5144 14.3894C10.6052 14.2985 10.6562 14.1753 10.6562 14.0469C10.6562 13.9184 10.6052 13.7952 10.5144 13.7044C10.4235 13.6135 10.3003 13.5625 10.1719 13.5625Z" fill="black"/>
<path d="M13.5625 13.5625H12.1094C11.9809 13.5625 11.8577 13.6135 11.7669 13.7044C11.676 13.7952 11.625 13.9184 11.625 14.0469C11.625 14.1753 11.676 14.2985 11.7669 14.3894C11.8577 14.4802 11.9809 14.5312 12.1094 14.5312H13.5625C13.691 14.5312 13.8142 14.4802 13.905 14.3894C13.9958 14.2985 14.0469 14.1753 14.0469 14.0469C14.0469 13.9184 13.9958 13.7952 13.905 13.7044C13.8142 13.6135 13.691 13.5625 13.5625 13.5625Z" fill="black"/>
<path d="M16.9531 13.5625H15.5C15.3715 13.5625 15.2483 13.6135 15.1575 13.7044C15.0667 13.7952 15.0156 13.9184 15.0156 14.0469C15.0156 14.1753 15.0667 14.2985 15.1575 14.3894C15.2483 14.4802 15.3715 14.5312 15.5 14.5312H16.9531C17.0816 14.5312 17.2048 14.4802 17.2956 14.3894C17.3865 14.2985 17.4375 14.1753 17.4375 14.0469C17.4375 13.9184 17.3865 13.7952 17.2956 13.7044C17.2048 13.6135 17.0816 13.5625 16.9531 13.5625Z" fill="black"/>
<path d="M18.8906 14.5312H20.3438C20.4722 14.5312 20.5954 14.4802 20.6863 14.3894C20.7771 14.2985 20.8281 14.1753 20.8281 14.0469C20.8281 13.9184 20.7771 13.7952 20.6863 13.7044C20.5954 13.6135 20.4722 13.5625 20.3438 13.5625H18.8906C18.7622 13.5625 18.639 13.6135 18.5481 13.7044C18.4573 13.7952 18.4062 13.9184 18.4062 14.0469C18.4062 14.1753 18.4573 14.2985 18.5481 14.3894C18.639 14.4802 18.7622 14.5312 18.8906 14.5312Z" fill="black"/>
<path d="M22.2812 14.5312H23.7344C23.8628 14.5312 23.986 14.4802 24.0769 14.3894C24.1677 14.2985 24.2188 14.1753 24.2188 14.0469C24.2188 13.9184 24.1677 13.7952 24.0769 13.7044C23.986 13.6135 23.8628 13.5625 23.7344 13.5625H22.2812C22.1528 13.5625 22.0296 13.6135 21.9387 13.7044C21.8479 13.7952 21.7969 13.9184 21.7969 14.0469C21.7969 14.1753 21.8479 14.2985 21.9387 14.3894C22.0296 14.4802 22.1528 14.5312 22.2812 14.5312Z" fill="black"/>
<path d="M7.26562 2.42188C7.39409 2.42188 7.51729 2.37084 7.60813 2.28C7.69897 2.18917 7.75 2.06596 7.75 1.9375V1.45312C7.75 1.32466 7.69897 1.20146 7.60813 1.11062C7.51729 1.01978 7.39409 0.96875 7.26562 0.96875C7.13716 0.96875 7.01396 1.01978 6.92312 1.11062C6.83228 1.20146 6.78125 1.32466 6.78125 1.45312V1.9375C6.78125 2.06596 6.83228 2.18917 6.92312 2.28C7.01396 2.37084 7.13716 2.42188 7.26562 2.42188Z" fill="black"/>
<path d="M7.26562 5.8125C7.39409 5.8125 7.51729 5.76147 7.60813 5.67063C7.69897 5.57979 7.75 5.45659 7.75 5.32812V4.84375C7.75 4.71529 7.69897 4.59208 7.60813 4.50125C7.51729 4.41041 7.39409 4.35938 7.26562 4.35938C7.13716 4.35938 7.01396 4.41041 6.92312 4.50125C6.83228 4.59208 6.78125 4.71529 6.78125 4.84375V5.32812C6.78125 5.45659 6.83228 5.57979 6.92312 5.67063C7.01396 5.76147 7.13716 5.8125 7.26562 5.8125Z" fill="black"/>
<path d="M5.32812 3.875H5.8125C5.94096 3.875 6.06417 3.82397 6.155 3.73313C6.24584 3.64229 6.29688 3.51909 6.29688 3.39062C6.29688 3.26216 6.24584 3.13896 6.155 3.04812C6.06417 2.95728 5.94096 2.90625 5.8125 2.90625H5.32812C5.19966 2.90625 5.07646 2.95728 4.98562 3.04812C4.89478 3.13896 4.84375 3.26216 4.84375 3.39062C4.84375 3.51909 4.89478 3.64229 4.98562 3.73313C5.07646 3.82397 5.19966 3.875 5.32812 3.875Z" fill="black"/>
<path d="M8.23438 3.39062C8.23438 3.51909 8.28541 3.64229 8.37624 3.73313C8.46708 3.82397 8.59029 3.875 8.71875 3.875H9.20312C9.33159 3.875 9.45479 3.82397 9.54563 3.73313C9.63647 3.64229 9.6875 3.51909 9.6875 3.39062C9.6875 3.26216 9.63647 3.13896 9.54563 3.04812C9.45479 2.95728 9.33159 2.90625 9.20312 2.90625H8.71875C8.59029 2.90625 8.46708 2.95728 8.37624 3.04812C8.28541 3.13896 8.23438 3.26216 8.23438 3.39062Z" fill="black"/>
<path d="M5.89566 2.70566C5.94065 2.75064 5.99405 2.78631 6.05282 2.81065C6.11159 2.83499 6.17458 2.84751 6.23819 2.8475C6.3018 2.8475 6.36479 2.83496 6.42355 2.81062C6.48232 2.78627 6.53572 2.75058 6.58069 2.7056C6.62567 2.66062 6.66134 2.60721 6.68568 2.54844C6.71002 2.48967 6.72254 2.42668 6.72254 2.36307C6.72253 2.29946 6.71 2.23648 6.68565 2.17771C6.6613 2.11894 6.62562 2.06555 6.58063 2.02057L6.23812 1.67812C6.19324 1.6327 6.13982 1.59659 6.08093 1.57189C6.02205 1.54719 5.95886 1.53437 5.895 1.53418C5.83115 1.53399 5.76788 1.54643 5.70885 1.57078C5.64982 1.59513 5.59619 1.63091 5.55103 1.67606C5.50588 1.72122 5.47011 1.77486 5.44576 1.83389C5.42142 1.89292 5.40899 1.95619 5.40918 2.02005C5.40938 2.0839 5.4222 2.14709 5.44691 2.20597C5.47162 2.26485 5.50772 2.31827 5.55315 2.36315L5.89566 2.70566Z" fill="black"/>
<path d="M8.29326 5.1031C8.33814 5.14852 8.39156 5.18463 8.45044 5.20933C8.50933 5.23403 8.57252 5.24685 8.63637 5.24704C8.70023 5.24723 8.76349 5.23479 8.82253 5.21044C8.88156 5.18609 8.93519 5.15031 8.98034 5.10515C9.0255 5.06 9.06127 5.00636 9.08562 4.94733C9.10996 4.88829 9.12239 4.82503 9.1222 4.76117C9.122 4.69732 9.10918 4.63413 9.08447 4.57525C9.05976 4.51636 9.02366 4.46295 8.97823 4.41807L8.63571 4.07556C8.59073 4.03058 8.53733 3.99491 8.47856 3.97057C8.41978 3.94623 8.3568 3.93371 8.29318 3.93372C8.16472 3.93373 8.04152 3.98477 7.95068 4.07562C7.85985 4.16647 7.80883 4.28968 7.80884 4.41815C7.80885 4.54661 7.85989 4.66981 7.95074 4.76065L8.29326 5.1031Z" fill="black"/>
<path d="M5.89566 4.07556L5.55315 4.41807C5.50772 4.46295 5.47162 4.51636 5.44691 4.57525C5.4222 4.63413 5.40938 4.69732 5.40918 4.76117C5.40899 4.82503 5.42142 4.88829 5.44576 4.94733C5.47011 5.00636 5.50588 5.06 5.55103 5.10515C5.59619 5.15031 5.64982 5.18609 5.70885 5.21044C5.76788 5.23479 5.83115 5.24723 5.895 5.24704C5.95886 5.24685 6.02205 5.23403 6.08093 5.20933C6.13982 5.18463 6.19324 5.14852 6.23812 5.1031L6.58063 4.76065C6.67148 4.66981 6.72252 4.54661 6.72254 4.41815C6.72255 4.28968 6.67152 4.16647 6.58069 4.07562C6.48986 3.98477 6.36666 3.93373 6.23819 3.93372C6.10972 3.9337 5.98651 3.98473 5.89566 4.07556Z" fill="black"/>
<path d="M8.29323 2.84746C8.35684 2.84754 8.41983 2.83505 8.4786 2.81072C8.53737 2.78639 8.59075 2.75068 8.63568 2.70566L8.9782 2.36315C9.02363 2.31827 9.05973 2.26486 9.08444 2.20597C9.10915 2.14709 9.12197 2.0839 9.12217 2.02005C9.12236 1.95619 9.10993 1.89293 9.08559 1.83389C9.06124 1.77486 9.02547 1.72122 8.98031 1.67606C8.93516 1.63091 8.88153 1.59513 8.8225 1.57078C8.76346 1.54643 8.7002 1.53399 8.63634 1.53418C8.57249 1.53437 8.5093 1.54719 8.45042 1.57189C8.39153 1.59659 8.33811 1.6327 8.29323 1.67812L7.95072 2.02057C7.88297 2.08831 7.83684 2.17462 7.81815 2.26859C7.79946 2.36255 7.80905 2.45994 7.84571 2.54845C7.88237 2.63696 7.94446 2.71261 8.02412 2.76584C8.10378 2.81906 8.19743 2.84747 8.29323 2.84746Z" fill="black"/>
<path d="M27.125 5.8125C27.2535 5.8125 27.3767 5.76147 27.4675 5.67063C27.5583 5.57979 27.6094 5.45659 27.6094 5.32812V4.84375C27.6094 4.71529 27.5583 4.59208 27.4675 4.50125C27.3767 4.41041 27.2535 4.35938 27.125 4.35938C26.9965 4.35938 26.8733 4.41041 26.7825 4.50125C26.6917 4.59208 26.6406 4.71529 26.6406 4.84375V5.32812C26.6406 5.45659 26.6917 5.57979 26.7825 5.67063C26.8733 5.76147 26.9965 5.8125 27.125 5.8125Z" fill="black"/>
<path d="M27.125 7.75C26.9965 7.75 26.8733 7.80103 26.7825 7.89187C26.6917 7.98271 26.6406 8.10591 26.6406 8.23438V8.71875C26.6406 8.84721 26.6917 8.97042 26.7825 9.06126C26.8733 9.15209 26.9965 9.20312 27.125 9.20312C27.2535 9.20312 27.3767 9.15209 27.4675 9.06126C27.5583 8.97042 27.6094 8.84721 27.6094 8.71875V8.23438C27.6094 8.10591 27.5583 7.98271 27.4675 7.89187C27.3767 7.80103 27.2535 7.75 27.125 7.75Z" fill="black"/>
<path d="M29.0625 6.29688H28.5781C28.4497 6.29688 28.3265 6.34791 28.2356 6.43875C28.1448 6.52958 28.0938 6.65279 28.0938 6.78125C28.0938 6.90971 28.1448 7.03292 28.2356 7.12375C28.3265 7.21459 28.4497 7.26562 28.5781 7.26562H29.0625C29.191 7.26562 29.3142 7.21459 29.405 7.12375C29.4958 7.03292 29.5469 6.90971 29.5469 6.78125C29.5469 6.65279 29.4958 6.52958 29.405 6.43875C29.3142 6.34791 29.191 6.29688 29.0625 6.29688Z" fill="black"/>
<path d="M25.8138 6.15502C25.9046 6.24586 26.0278 6.29689 26.1563 6.29689C26.2848 6.29689 26.408 6.24586 26.4988 6.15502C26.5896 6.06418 26.6407 5.94097 26.6407 5.8125C26.6407 5.68404 26.5896 5.56083 26.4988 5.46999L26.0975 5.06875C26.0526 5.02332 25.9992 4.98722 25.9403 4.96252C25.8814 4.93781 25.8182 4.925 25.7544 4.92481C25.6905 4.92462 25.6273 4.93705 25.5682 4.9614C25.5092 4.98575 25.4556 5.02153 25.4104 5.06669C25.3653 5.11185 25.3295 5.16548 25.3051 5.22452C25.2808 5.28355 25.2684 5.34682 25.2686 5.41067C25.2688 5.47453 25.2816 5.53771 25.3063 5.5966C25.331 5.65548 25.3671 5.7089 25.4125 5.75377L25.8138 6.15502Z" fill="black"/>
<path d="M27.7512 8.09253L28.1526 8.49377C28.1974 8.53919 28.2509 8.5753 28.3097 8.6C28.3686 8.6247 28.4318 8.63752 28.4957 8.63771C28.5595 8.6379 28.6228 8.62546 28.6818 8.60111C28.7409 8.57676 28.7945 8.54098 28.8396 8.49582C28.8848 8.45067 28.9206 8.39703 28.9449 8.338C28.9693 8.27896 28.9817 8.2157 28.9815 8.15184C28.9813 8.08799 28.9685 8.0248 28.9438 7.96592C28.9191 7.90704 28.883 7.85362 28.8375 7.80874L28.4363 7.4075C28.3454 7.31666 28.2222 7.26562 28.0938 7.26563C27.9653 7.26563 27.8421 7.31666 27.7512 7.4075C27.6604 7.49834 27.6094 7.62154 27.6094 7.75001C27.6094 7.87848 27.6604 8.00169 27.7512 8.09253Z" fill="black"/>
<path d="M27.7513 6.15502C27.7962 6.2 27.8496 6.23568 27.9084 6.26002C27.9672 6.28436 28.0302 6.29689 28.0938 6.29689C28.1574 6.29689 28.2204 6.28436 28.2791 6.26002C28.3379 6.23568 28.3913 6.2 28.4363 6.15502L28.8375 5.75377C28.883 5.7089 28.9191 5.65548 28.9438 5.5966C28.9685 5.53771 28.9813 5.47453 28.9815 5.41067C28.9817 5.34681 28.9693 5.28355 28.9449 5.22452C28.9206 5.16548 28.8848 5.11185 28.8396 5.06669C28.7945 5.02153 28.7409 4.98575 28.6818 4.9614C28.6228 4.93705 28.5595 4.92462 28.4957 4.92481C28.4318 4.925 28.3686 4.93781 28.3097 4.96252C28.2509 4.98722 28.1974 5.02332 28.1526 5.06875L27.7513 5.46999C27.7063 5.51497 27.6706 5.56837 27.6462 5.62713C27.6219 5.6859 27.6094 5.74889 27.6094 5.8125C27.6094 5.87611 27.6219 5.9391 27.6462 5.99787C27.6706 6.05664 27.7063 6.11004 27.7513 6.15502Z" fill="black"/>
</svg>
