<svg width="31" height="31" viewBox="0 0 31 31" fill="none" xmlns="http://www.w3.org/2000/svg">
<path d="M28.4858 0H10.99C10.4058 0 9.93046 0.475389 9.93046 1.05957V12.6761L4.39087 6.50881C4.23004 6.32977 4.0089 6.22405 3.76861 6.21128C3.5276 6.19827 3.29724 6.27987 3.1182 6.4407L1.87272 7.5594C1.50306 7.89146 1.47255 8.46241 1.80461 8.83207L9.62961 17.5433C9.71499 17.6384 9.8174 17.7119 9.93046 17.7628V24.7723H8.16537C7.91443 24.7723 7.71126 24.9757 7.71126 25.2264C7.71126 25.4771 7.91443 25.6805 8.16537 25.6805H20.6844C20.7679 25.6805 20.8358 25.7484 20.8358 25.8319V26.7654C20.8358 28.113 21.4687 29.3157 22.4526 30.0917H6.36243C4.52805 30.0917 3.03565 28.5995 3.03565 26.7651V25.8319C3.03565 25.7484 3.10353 25.6805 3.18702 25.6805H6.18789C6.43859 25.6805 6.64199 25.4771 6.64199 25.2264C6.64199 24.9757 6.43859 24.7723 6.18789 24.7723H3.18702C2.60284 24.7723 2.12745 25.2477 2.12745 25.8319V26.7651C2.12745 29.1002 4.02735 30.9999 6.36243 30.9999H25.3104C27.6455 30.9999 29.5454 29.1002 29.5454 26.7651V14.4078C29.5454 14.1571 29.3422 13.9537 29.0913 13.9537C28.8403 13.9537 28.6371 14.1571 28.6371 14.4078V26.7651C28.6371 28.5995 27.1448 30.0919 25.3104 30.0919H25.0703C23.2359 30.0919 21.7438 28.5998 21.7438 26.7654V25.8321C21.7438 25.2477 21.2684 24.7725 20.6842 24.7725H10.8387V18.0913L12.1343 18.7353C12.2372 18.7864 12.3474 18.8115 12.4566 18.8115C12.6307 18.8115 12.8022 18.7481 12.9384 18.6258C13.16 18.4267 13.2364 18.1175 13.1331 17.838L12.4368 15.9549C12.4408 15.927 12.4439 15.8991 12.4453 15.8707C12.4583 15.6304 12.3767 15.3993 12.2159 15.2203L10.8387 13.6872V1.05957C10.8387 0.976086 10.9065 0.908207 10.99 0.908207H28.4858C28.5693 0.908207 28.6371 0.976086 28.6371 1.05957V6.98137C28.6371 7.23231 28.8403 7.43547 29.0913 7.43547C29.3422 7.43547 29.5454 7.23231 29.5454 6.98137V1.05957C29.5454 0.475389 29.07 0 28.4858 0V0ZM3.71988 7.12091L4.25913 7.72141L3.0243 8.83089L2.48482 8.23039L3.71988 7.12091ZM3.63096 9.50661L3.91075 9.25519L10.5802 16.68L10.3006 16.9314L3.63096 9.50661ZM11.2627 17.2879L11.7871 16.8167L12.1189 17.7133L11.2627 17.2879ZM11.2559 16.0731L4.58646 8.6483L4.86602 8.39713L11.5354 15.822L11.2559 16.0731Z" fill="#0A0A0A" fill-opacity="0.87"/>
<path d="M29.0913 8.505C28.8406 8.505 28.6372 8.70817 28.6372 8.95911V12.4304C28.6372 12.6813 28.8406 12.8845 29.0913 12.8845C29.3422 12.8845 29.5454 12.6813 29.5454 12.4304V8.95911C29.5454 8.70817 29.3422 8.505 29.0913 8.505Z" fill="#0A0A0A" fill-opacity="0.87"/>
<path d="M14.5114 9.11877C13.6548 9.11877 12.9578 9.81577 12.9578 10.6727C12.9578 11.5293 13.6548 12.2263 14.5114 12.2263C15.3683 12.2263 16.0653 11.5293 16.0653 10.6727C16.0653 9.81577 15.3683 9.11877 14.5114 9.11877ZM14.5114 11.3181C14.1555 11.3181 13.866 11.0286 13.866 10.6727C13.866 10.3167 14.1555 10.027 14.5114 10.027C14.8674 10.027 15.1571 10.3167 15.1571 10.6727C15.1571 11.0286 14.8674 11.3181 14.5114 11.3181Z" fill="#0A0A0A" fill-opacity="0.87"/>
<path d="M17.4314 11.2241H19.6565C19.9072 11.2241 20.1106 11.0207 20.1106 10.77C20.1106 10.5193 19.9072 10.3159 19.6565 10.3159H17.4314C17.1807 10.3159 16.9773 10.5193 16.9773 10.77C16.9773 11.0207 17.1807 11.2241 17.4314 11.2241Z" fill="#0A0A0A" fill-opacity="0.87"/>
<path d="M25.1878 11.4044H17.4314C17.1807 11.4044 16.9773 11.6076 16.9773 11.8585C16.9773 12.1092 17.1807 12.3126 17.4314 12.3126H25.1878C25.4385 12.3126 25.6419 12.1092 25.6419 11.8585C25.6419 11.6076 25.4385 11.4044 25.1878 11.4044Z" fill="#0A0A0A" fill-opacity="0.87"/>
<path d="M17.4338 9.94081H17.4369C17.6876 9.93915 17.8895 9.73457 17.8881 9.48386C17.8865 9.23387 17.6833 9.03259 17.434 9.03259C17.4331 9.03259 17.4321 9.03259 17.4309 9.03259H17.4264C17.1755 9.03401 16.9759 9.2386 16.9775 9.48954C16.979 9.7393 17.1843 9.94081 17.4338 9.94081Z" fill="#0A0A0A" fill-opacity="0.87"/>
<path d="M14.5114 13.9156C13.6548 13.9156 12.9578 14.6126 12.9578 15.4695C12.9578 16.3262 13.6548 17.0232 14.5114 17.0232C15.3683 17.0232 16.0653 16.3262 16.0653 15.4695C16.0653 14.6126 15.3683 13.9156 14.5114 13.9156ZM14.5114 16.115C14.1555 16.115 13.866 15.8255 13.866 15.4693C13.866 15.1133 14.1555 14.8239 14.5114 14.8239C14.8674 14.8239 15.1571 15.1133 15.1571 15.4693C15.1571 15.8255 14.8674 16.115 14.5114 16.115Z" fill="#0A0A0A" fill-opacity="0.87"/>
<path d="M17.4314 16.0211H19.6565C19.9072 16.0211 20.1106 15.8177 20.1106 15.567C20.1106 15.3163 19.9072 15.1129 19.6565 15.1129H17.4314C17.1807 15.1129 16.9773 15.3163 16.9773 15.567C16.9773 15.8177 17.1807 16.0211 17.4314 16.0211Z" fill="#0A0A0A" fill-opacity="0.87"/>
<path d="M25.1878 16.2013H17.4314C17.1807 16.2013 16.9773 16.4045 16.9773 16.6554C16.9773 16.9061 17.1807 17.1095 17.4314 17.1095H25.1878C25.4385 17.1095 25.6419 16.9061 25.6419 16.6554C25.6419 16.4045 25.4385 16.2013 25.1878 16.2013Z" fill="#0A0A0A" fill-opacity="0.87"/>
<path d="M17.4338 14.7376H17.4369C17.6876 14.7361 17.8895 14.5315 17.8881 14.2806C17.8865 14.0309 17.6833 13.8293 17.434 13.8293C17.4331 13.8293 17.4321 13.8293 17.4309 13.8293H17.4264C17.1755 13.831 16.9759 14.0356 16.9775 14.2863C16.979 14.5363 17.1843 14.7376 17.4338 14.7376Z" fill="#0A0A0A" fill-opacity="0.87"/>
<path d="M14.5114 18.7126C13.6548 18.7126 12.9578 19.4097 12.9578 20.2665C12.9578 21.1232 13.6548 21.8202 14.5114 21.8202C15.3683 21.8202 16.0653 21.1232 16.0653 20.2665C16.0653 19.4097 15.3683 18.7126 14.5114 18.7126ZM14.5114 20.912C14.1555 20.912 13.866 20.6225 13.866 20.2665C13.866 19.9106 14.1555 19.6209 14.5114 19.6209C14.8674 19.6209 15.1571 19.9106 15.1571 20.2665C15.1571 20.6225 14.8674 20.912 14.5114 20.912Z" fill="#0A0A0A" fill-opacity="0.87"/>
<path d="M17.4314 20.818H19.6565C19.9072 20.818 20.1106 20.6146 20.1106 20.3639C20.1106 20.1132 19.9072 19.9098 19.6565 19.9098H17.4314C17.1807 19.9098 16.9773 20.1132 16.9773 20.3639C16.9773 20.6146 17.1807 20.818 17.4314 20.818Z" fill="#0A0A0A" fill-opacity="0.87"/>
<path d="M17.4314 21.9065H25.1878C25.4385 21.9065 25.6419 21.7031 25.6419 21.4524C25.6419 21.2015 25.4385 20.9983 25.1878 20.9983H17.4314C17.1807 20.9983 16.9773 21.2015 16.9773 21.4524C16.9773 21.7031 17.1807 21.9065 17.4314 21.9065Z" fill="#0A0A0A" fill-opacity="0.87"/>
<path d="M17.4338 19.5347H17.4369C17.6876 19.533 17.8895 19.3284 17.8881 19.0777C17.8865 18.8277 17.6833 18.6265 17.434 18.6265C17.4331 18.6265 17.4321 18.6265 17.4309 18.6265H17.4264C17.1755 18.6279 16.9759 18.8325 16.9775 19.0834C16.979 19.3332 17.1843 19.5347 17.4338 19.5347Z" fill="#0A0A0A" fill-opacity="0.87"/>
<path d="M26.3217 5.9507V3.31714C26.3217 3.0662 26.1183 2.86304 25.8675 2.86304H13.6084C13.3575 2.86304 13.1543 3.0662 13.1543 3.31714V5.9507C13.1543 6.20164 13.3575 6.4048 13.6084 6.4048H25.8675C26.1183 6.4048 26.3217 6.20164 26.3217 5.9507ZM25.4134 5.4966H14.0625V3.77124H25.4134V5.4966Z" fill="#0A0A0A" fill-opacity="0.87"/>
</svg>
