<svg width="70" height="70" viewBox="0 0 70 70" fill="none" xmlns="http://www.w3.org/2000/svg">
<g clip-path="url(#clip0_269_55)">
<path d="M61.699 64.1834H8.30105C5.45511 64.1834 3.14798 61.8763 3.14798 59.0304V14.5667C3.14798 11.7208 5.45511 9.41364 8.30105 9.41364H61.699C64.545 9.41364 66.8521 11.7208 66.8521 14.5667V59.0304C66.8521 61.8763 64.545 64.1834 61.699 64.1834Z" fill="url(#paint0_linear_269_55)"/>
<path d="M60.5081 62.962H9.4918C6.77274 62.962 4.56842 60.7576 4.56842 58.0386V15.5581C4.56842 12.8391 6.7726 10.6348 9.4918 10.6348H60.508C63.227 10.6348 65.4314 12.8389 65.4314 15.5581V58.0387C65.4315 60.7578 63.2272 62.962 60.5081 62.962Z" fill="url(#paint1_linear_269_55)"/>
<path d="M63.3993 23.796L50.5552 1.54971C49.6998 0.067818 47.8047 -0.439956 46.3228 0.415767L5.827 23.796H63.3993Z" fill="url(#paint2_linear_269_55)"/>
<path d="M3.14798 41.7004H66.8521V24.8277C66.8521 22.698 65.1257 20.9717 62.9961 20.9717H7.004C4.87433 20.9717 3.14798 22.698 3.14798 24.8277V41.7004Z" fill="url(#paint3_linear_269_55)"/>
<path d="M3.14798 35.3548V59.0304C3.14798 61.8763 5.45511 64.1836 8.30118 64.1836H61.699C64.545 64.1836 66.8521 61.8765 66.8521 59.0305V35.3548C66.8521 33.597 65.4271 32.172 63.6693 32.172H6.33079C4.573 32.172 3.14798 33.5969 3.14798 35.3548Z" fill="url(#paint4_linear_269_55)"/>
<path d="M57.2411 23.1434V64.1837H61.6989C64.5448 64.1837 66.8519 61.8766 66.8519 59.0307V32.7542L57.2411 23.1434Z" fill="url(#paint5_linear_269_55)"/>
<path d="M52.8961 69.9613L8.17718 64.7677C5.31046 64.4346 3.14798 62.0066 3.14798 59.1206V14.1826C3.14798 15.1483 3.87163 15.9607 4.83071 16.0721L54.2076 21.8069C57.0744 22.14 59.2368 24.568 59.2368 27.454V64.3144C59.2368 67.7139 56.2729 70.3537 52.8961 69.9613Z" fill="url(#paint6_linear_269_55)"/>
<path d="M52.8961 60.9852L8.17718 55.7915C5.31046 55.4585 3.14798 53.0305 3.14798 50.1445V59.1206C3.14798 62.0066 5.31046 64.4347 8.17718 64.7676L52.8961 69.9613C56.2729 70.3536 59.237 67.7139 59.237 64.3143V55.3381C59.2368 58.7378 56.2729 61.3773 52.8961 60.9852Z" fill="url(#paint7_linear_269_55)"/>
<path d="M7.15716 21.1867C7.1197 21.1867 7.08169 21.1845 7.04354 21.1804L4.99714 20.9554C4.43194 20.8932 4.02411 20.3849 4.08632 19.8198C4.14852 19.2548 4.65725 18.8473 5.2219 18.909L7.26831 19.134C7.8335 19.1962 8.24134 19.7046 8.17913 20.2696C8.12116 20.7967 7.67518 21.1867 7.15716 21.1867Z" fill="url(#paint8_linear_269_55)"/>
<path d="M49.2072 66.5699C49.164 66.5699 49.12 66.567 49.076 66.5615L45.0987 66.0558C44.5349 65.9841 44.1357 65.4687 44.2074 64.9046C44.2792 64.3408 44.7945 63.9439 45.3586 64.0133L49.3359 64.5191C49.8997 64.5907 50.2991 65.1061 50.2271 65.6702C50.1608 66.19 49.7179 66.5699 49.2072 66.5699ZM53.122 66.0603C52.7359 66.0603 52.3656 65.842 52.1902 65.4693C51.9478 64.9551 52.1683 64.3416 52.6826 64.0995C53.727 63.6073 54.5125 62.7911 54.8377 61.8597C55.0252 61.3233 55.6125 61.0403 56.149 61.2273C56.6856 61.4147 56.9689 62.0018 56.7814 62.5386C56.2678 64.0094 55.1239 65.2252 53.5601 65.9619C53.4183 66.0286 53.2691 66.0603 53.122 66.0603ZM41.2528 65.5584C41.2096 65.5584 41.1656 65.5555 41.1215 65.5501L37.1443 65.0443C36.5804 64.9727 36.1811 64.4573 36.253 63.8932C36.3248 63.3293 36.8401 62.9323 37.4042 63.0019L41.3814 63.5076C41.9453 63.5793 42.3446 64.0947 42.2727 64.6588C42.2064 65.1785 41.7632 65.5584 41.2528 65.5584ZM33.2984 64.5468C33.2552 64.5468 33.2113 64.5439 33.1671 64.5385L29.1898 64.0328C28.626 63.9611 28.2266 63.4457 28.2986 62.8816C28.3703 62.3178 28.8858 61.9188 29.4497 61.9903L33.427 62.496C33.9908 62.5677 34.3902 63.0831 34.3183 63.6472C34.252 64.1669 33.8087 64.5468 33.2984 64.5468ZM25.3437 63.5352C25.3005 63.5352 25.2566 63.5324 25.2124 63.5269L21.235 63.021C20.671 62.9493 20.2718 62.434 20.3437 61.8699C20.4155 61.3059 20.9311 60.9089 21.4949 60.9786L25.4723 61.4845C26.0363 61.5562 26.4355 62.0715 26.3636 62.6356C26.2975 63.1556 25.8543 63.5352 25.3437 63.5352ZM17.3892 62.5237C17.346 62.5237 17.3021 62.5208 17.258 62.5153L13.2806 62.0095C12.7166 61.9377 12.3174 61.4224 12.3893 60.8583C12.4611 60.2943 12.9766 59.8972 13.5405 59.967L17.5179 60.4729C18.0818 60.5447 18.4811 61.0599 18.4091 61.624C18.343 62.144 17.8999 62.5237 17.3892 62.5237ZM56.0406 59.2458C55.472 59.2458 55.0112 58.7851 55.0112 58.2165V54.2072C55.0112 53.6386 55.472 53.1778 56.0406 53.1778C56.6092 53.1778 57.0699 53.6386 57.0699 54.2072V58.2165C57.0701 58.7851 56.6093 59.2458 56.0406 59.2458ZM56.0406 51.2274C55.472 51.2274 55.0112 50.7667 55.0112 50.198V46.1888C55.0112 45.6202 55.472 45.1594 56.0406 45.1594C56.6092 45.1594 57.0699 45.6202 57.0699 46.1888V50.198C57.0701 50.7665 56.6093 51.2274 56.0406 51.2274ZM56.0406 43.2088C55.472 43.2088 55.0112 42.7481 55.0112 42.1795V38.1702C55.0112 37.6016 55.472 37.1409 56.0406 37.1409C56.6092 37.1409 57.0699 37.6016 57.0699 38.1702V42.1795C57.0701 42.748 56.6093 43.2088 56.0406 43.2088ZM56.0406 35.1903C55.472 35.1903 55.0112 34.7296 55.0112 34.1609V30.1517C55.0112 29.583 55.472 29.1223 56.0406 29.1223C56.6092 29.1223 57.0699 29.583 57.0699 30.1517V34.1609C57.0701 34.7294 56.6093 35.1903 56.0406 35.1903ZM54.6009 27.5826C54.3468 27.5826 54.0921 27.4889 53.8931 27.3004C53.1301 26.5774 52.0712 26.1168 50.9112 26.0032L50.8839 26.0003C50.3186 25.9395 49.9097 25.4319 49.9707 24.8667C50.0315 24.3013 50.539 23.8923 51.1043 23.9534L51.1218 23.9553C52.7251 24.1124 54.2156 24.77 55.3093 25.8059C55.722 26.1969 55.7395 26.8485 55.3485 27.2613C55.1459 27.4747 54.8737 27.5826 54.6009 27.5826ZM47.0099 25.5682C46.9724 25.5682 46.9344 25.566 46.8963 25.5619L42.9111 25.1237C42.346 25.0615 41.938 24.5532 42.0002 23.9881C42.0624 23.423 42.5712 23.0163 43.1358 23.0773L47.121 23.5155C47.6861 23.5777 48.0941 24.086 48.0319 24.6511C47.974 25.178 47.5279 25.5682 47.0099 25.5682ZM39.0396 24.6918C39.0021 24.6918 38.9641 24.6896 38.926 24.6855L34.9406 24.2473C34.3756 24.1851 33.9676 23.6768 34.0298 23.1117C34.0919 22.5465 34.6014 22.1394 35.1654 22.2009L39.1507 22.6391C39.7158 22.7013 40.1238 23.2096 40.0616 23.7747C40.0036 24.3017 39.5576 24.6918 39.0396 24.6918ZM31.0689 23.8156C31.0314 23.8156 30.9934 23.8134 30.9553 23.8093L26.9701 23.3711C26.405 23.3089 25.997 22.8006 26.0592 22.2355C26.1213 21.6704 26.6298 21.2633 27.1948 21.3247L31.18 21.7629C31.7451 21.8251 32.1531 22.3334 32.0909 22.8985C32.033 23.4254 31.5871 23.8156 31.0689 23.8156ZM23.0983 22.9393C23.0609 22.9393 23.0229 22.9371 22.9847 22.933L18.9995 22.4949C18.4343 22.4327 18.0265 21.9243 18.0887 21.3593C18.1507 20.7944 18.6587 20.3873 19.2243 20.4485L23.2095 20.8866C23.7745 20.9488 24.1825 21.4572 24.1203 22.0222C24.0626 22.5491 23.6165 22.9393 23.0983 22.9393ZM15.1278 22.063C15.0903 22.063 15.0523 22.0608 15.0141 22.0567L11.0289 21.6185C10.4639 21.5563 10.0559 21.048 10.1181 20.4829C10.1803 19.918 10.6884 19.5111 11.2537 19.5721L15.2389 20.0103C15.8041 20.0725 16.2119 20.5808 16.1497 21.1459C16.0919 21.6728 15.6458 22.063 15.1278 22.063Z" fill="url(#paint9_linear_269_55)"/>
<path d="M9.42486 61.5107C9.38166 61.5107 9.33791 61.508 9.29375 61.5024L7.25131 61.2427C6.68735 61.1711 6.28799 60.6557 6.3599 60.0917C6.43154 59.5278 6.94697 59.1288 7.51094 59.2003L9.55338 59.4599C10.1173 59.5316 10.5167 60.047 10.4448 60.611C10.3786 61.1309 9.93537 61.5107 9.42486 61.5107Z" fill="url(#paint10_linear_269_55)"/>
<path d="M47.2457 7.66554L40.6575 11.2506C39.7993 11.7175 38.7251 11.4004 38.2581 10.5422C37.7912 9.68406 38.1082 8.60986 38.9664 8.14282L45.5548 4.55792C46.413 4.09103 47.4871 4.40808 47.9542 5.26626C48.4211 6.12431 48.104 7.19865 47.2457 7.66554Z" fill="#61DB99"/>
<path d="M59.2368 49.7412L52.6988 43.2031C51.7764 42.1987 50.4527 41.5687 48.9814 41.5687C46.1943 41.5687 43.9349 43.8282 43.9349 46.6152C43.9349 48.0865 44.5649 49.4103 45.5694 50.3326L59.237 64.0002V49.7412H59.2368Z" fill="url(#paint11_linear_269_55)"/>
<path d="M48.9807 51.6611C51.7679 51.6611 54.0273 49.4017 54.0273 46.6146C54.0273 43.8274 51.7679 41.568 48.9807 41.568C46.1936 41.568 43.9342 43.8274 43.9342 46.6146C43.9342 49.4017 46.1936 51.6611 48.9807 51.6611Z" fill="url(#paint12_linear_269_55)"/>
<path d="M48.9808 50.0973C50.9042 50.0973 52.4635 48.538 52.4635 46.6145C52.4635 44.6911 50.9042 43.1318 48.9808 43.1318C47.0573 43.1318 45.498 44.6911 45.498 46.6145C45.498 48.538 47.0573 50.0973 48.9808 50.0973Z" fill="url(#paint13_linear_269_55)"/>
<path d="M47.6576 46.0121C48.0556 46.0121 48.3783 45.6895 48.3783 45.2915C48.3783 44.8935 48.0556 44.5709 47.6576 44.5709C47.2596 44.5709 46.937 44.8935 46.937 45.2915C46.937 45.6895 47.2596 46.0121 47.6576 46.0121Z" fill="url(#paint14_linear_269_55)"/>
<path d="M50.304 46.0121C50.702 46.0121 51.0246 45.6895 51.0246 45.2915C51.0246 44.8935 50.702 44.5709 50.304 44.5709C49.906 44.5709 49.5833 44.8935 49.5833 45.2915C49.5833 45.6895 49.906 46.0121 50.304 46.0121Z" fill="url(#paint15_linear_269_55)"/>
<path d="M47.6576 48.6597C48.0556 48.6597 48.3783 48.337 48.3783 47.939C48.3783 47.541 48.0556 47.2184 47.6576 47.2184C47.2596 47.2184 46.937 47.541 46.937 47.939C46.937 48.337 47.2596 48.6597 47.6576 48.6597Z" fill="url(#paint16_linear_269_55)"/>
<path d="M50.304 48.6597C50.702 48.6597 51.0246 48.337 51.0246 47.939C51.0246 47.541 50.702 47.2184 50.304 47.2184C49.906 47.2184 49.5833 47.541 49.5833 47.939C49.5833 48.337 49.906 48.6597 50.304 48.6597Z" fill="url(#paint17_linear_269_55)"/>
</g>
<defs>
<linearGradient id="paint0_linear_269_55" x1="36.041" y1="6.25671" x2="35.6691" y2="17.1622" gradientUnits="userSpaceOnUse">
<stop stop-color="#FFB92D"/>
<stop offset="1" stop-color="#F59500"/>
</linearGradient>
<linearGradient id="paint1_linear_269_55" x1="37.8243" y1="13.4976" x2="36.8114" y2="21.8521" gradientUnits="userSpaceOnUse">
<stop stop-color="#FFB92D"/>
<stop offset="1" stop-color="#F59500"/>
</linearGradient>
<linearGradient id="paint2_linear_269_55" x1="34.6123" y1="13.7446" x2="34.6123" y2="20.109" gradientUnits="userSpaceOnUse">
<stop stop-color="#A7F3CE"/>
<stop offset="1" stop-color="#61DB99"/>
</linearGradient>
<linearGradient id="paint3_linear_269_55" x1="34.9993" y1="24.7618" x2="34.9993" y2="42.621" gradientUnits="userSpaceOnUse">
<stop stop-color="#FF4C54"/>
<stop offset="1" stop-color="#BE3F45"/>
</linearGradient>
<linearGradient id="paint4_linear_269_55" x1="34.9993" y1="38.0231" x2="34.9993" y2="65.6053" gradientUnits="userSpaceOnUse">
<stop stop-color="#FF4C54"/>
<stop offset="1" stop-color="#BE3F45"/>
</linearGradient>
<linearGradient id="paint5_linear_269_55" x1="63.2278" y1="43.6641" x2="58.5804" y2="43.6641" gradientUnits="userSpaceOnUse">
<stop stop-color="#BE3F45" stop-opacity="0"/>
<stop offset="1" stop-color="#BE3F45"/>
</linearGradient>
<linearGradient id="paint6_linear_269_55" x1="21.6645" y1="38.8931" x2="45.3061" y2="49.7986" gradientUnits="userSpaceOnUse">
<stop stop-color="#FFB92D"/>
<stop offset="1" stop-color="#F59500"/>
</linearGradient>
<linearGradient id="paint7_linear_269_55" x1="30.4387" y1="63.1746" x2="29.4614" y2="70.6438" gradientUnits="userSpaceOnUse">
<stop stop-color="#BE3F45" stop-opacity="0"/>
<stop offset="1" stop-color="#BE3F45"/>
</linearGradient>
<linearGradient id="paint8_linear_269_55" x1="6.13252" y1="18.9038" x2="6.13252" y2="66.6688" gradientUnits="userSpaceOnUse">
<stop stop-color="#FFF465"/>
<stop offset="1" stop-color="#FFE600"/>
</linearGradient>
<linearGradient id="paint9_linear_269_55" x1="33.5902" y1="18.9053" x2="33.5902" y2="66.5701" gradientUnits="userSpaceOnUse">
<stop stop-color="#FFF465"/>
<stop offset="1" stop-color="#FFE600"/>
</linearGradient>
<linearGradient id="paint10_linear_269_55" x1="8.40207" y1="18.9026" x2="8.40207" y2="66.6662" gradientUnits="userSpaceOnUse">
<stop stop-color="#FFF465"/>
<stop offset="1" stop-color="#FFE600"/>
</linearGradient>
<linearGradient id="paint11_linear_269_55" x1="55.7161" y1="53.3515" x2="41.5736" y2="39.2091" gradientUnits="userSpaceOnUse">
<stop stop-color="#BE3F45" stop-opacity="0"/>
<stop offset="1" stop-color="#BE3F45"/>
</linearGradient>
<linearGradient id="paint12_linear_269_55" x1="48.9796" y1="43.4473" x2="48.9796" y2="50.745" gradientUnits="userSpaceOnUse">
<stop stop-color="#FF4C54"/>
<stop offset="1" stop-color="#BE3F45"/>
</linearGradient>
<linearGradient id="paint13_linear_269_55" x1="48.9797" y1="48.8015" x2="48.9797" y2="43.7658" gradientUnits="userSpaceOnUse">
<stop stop-color="#FF4C54"/>
<stop offset="1" stop-color="#BE3F45"/>
</linearGradient>
<linearGradient id="paint14_linear_269_55" x1="40.8263" y1="15.1281" x2="42.2675" y2="21.4925" gradientUnits="userSpaceOnUse">
<stop stop-color="#A7F3CE"/>
<stop offset="1" stop-color="#61DB99"/>
</linearGradient>
<linearGradient id="paint15_linear_269_55" x1="43.4726" y1="15.1284" x2="44.9137" y2="21.4928" gradientUnits="userSpaceOnUse">
<stop stop-color="#A7F3CE"/>
<stop offset="1" stop-color="#61DB99"/>
</linearGradient>
<linearGradient id="paint16_linear_269_55" x1="40.256" y1="15.2571" x2="41.6972" y2="21.6215" gradientUnits="userSpaceOnUse">
<stop stop-color="#A7F3CE"/>
<stop offset="1" stop-color="#61DB99"/>
</linearGradient>
<linearGradient id="paint17_linear_269_55" x1="42.9023" y1="15.2574" x2="44.3435" y2="21.6218" gradientUnits="userSpaceOnUse">
<stop stop-color="#A7F3CE"/>
<stop offset="1" stop-color="#61DB99"/>
</linearGradient>
<clipPath id="clip0_269_55">
<rect width="70" height="70" fill="white"/>
</clipPath>
</defs>
</svg>
