<svg width="31" height="31" viewBox="0 0 31 31" fill="none" xmlns="http://www.w3.org/2000/svg">
<g clip-path="url(#clip0_189_44)">
<path d="M30.4637 4.83062C30.0215 4.29436 29.3661 3.98702 28.6657 3.98702H10.6787C10.3103 3.98702 10.0113 4.286 10.0113 4.65443C10.0113 5.02286 10.3103 5.32184 10.6787 5.32184H28.6653C28.97 5.32184 29.243 5.44898 29.4335 5.67991C29.6271 5.91483 29.7045 6.22453 29.6461 6.52587L26.9788 19.8632C26.8753 20.3398 26.4712 20.6725 25.996 20.6725H11.1602L5.03499 2.23135C4.70392 1.28561 3.80759 0.650229 2.78108 0.650229C2.78078 0.650229 2.78041 0.650229 2.78005 0.650229C1.90939 0.68026 1.02643 0.679957 0.810161 0.665245C0.594917 0.618502 0.362297 0.678565 0.19549 0.845432C-0.0651635 1.10609 -0.0651635 1.52852 0.19549 1.78917C0.402076 1.99576 0.471826 2.06551 2.80312 1.98474C3.24027 1.98474 3.63103 2.26108 3.77156 2.66214L10.0453 21.5504C10.1361 21.8231 10.391 22.0073 10.6787 22.0073H25.9959C27.1045 22.0073 28.0449 21.2421 28.2855 20.1358L30.9562 6.78374C31.091 6.08569 30.9118 5.37391 30.4637 4.83062Z" fill="#0A0A0A" fill-opacity="0.87"/>
<path d="M25.6956 25.6786H13.5486C13.1378 25.6786 12.7517 25.3956 12.6126 24.9985L11.3111 21.1274C11.1936 20.778 10.8142 20.5895 10.4658 20.7076C10.1164 20.8248 9.92852 21.2035 10.046 21.5529L11.3501 25.4316C11.6815 26.3776 12.5648 27.013 13.5485 27.013H25.6956C26.064 27.013 26.363 26.7143 26.363 26.3459C26.363 25.9775 26.064 25.6786 25.6956 25.6786Z" fill="#0A0A0A" fill-opacity="0.87"/>
<path d="M14.0156 25.6782C12.7275 25.6782 11.6797 26.7264 11.6797 28.0142C11.6797 29.3019 12.7275 30.3501 14.0156 30.3501C15.3038 30.3501 16.3516 29.3019 16.3516 28.0142C16.3516 26.7264 15.3038 25.6782 14.0156 25.6782ZM14.0156 29.0153C13.4637 29.0153 13.0145 28.5661 13.0145 28.0142C13.0145 27.4622 13.4637 27.013 14.0156 27.013C14.5676 27.013 15.0168 27.4622 15.0168 28.0142C15.0168 28.5662 14.5676 29.0153 14.0156 29.0153Z" fill="#0A0A0A" fill-opacity="0.87"/>
<path d="M25.6956 25.6782C24.4078 25.6782 23.3596 26.7264 23.3596 28.0142C23.3596 29.3019 24.4078 30.3501 25.6956 30.3501C26.9833 30.3501 28.0315 29.3019 28.0315 28.0142C28.0315 26.7264 26.9833 25.6782 25.6956 25.6782ZM25.6956 29.0153C25.1436 29.0153 24.6944 28.5661 24.6944 28.0142C24.6944 27.4622 25.1436 27.013 25.6956 27.013C26.2475 27.013 26.6967 27.4622 26.6967 28.0142C26.6967 28.5662 26.2475 29.0153 25.6956 29.0153Z" fill="#0A0A0A" fill-opacity="0.87"/>
</g>
<defs>
<clipPath id="clip0_189_44">
<rect width="31" height="31" fill="white"/>
</clipPath>
</defs>
</svg>
