<svg width="31" height="31" viewBox="0 0 31 31" fill="none" xmlns="http://www.w3.org/2000/svg">
<g clip-path="url(#clip0_126_0)">
<path d="M29.3777 15.6177L28.6528 15.2623C28.658 14.7502 28.6501 14.285 28.6528 13.8471C28.6528 11.5939 28.0747 9.38059 26.979 7.42341C27.2351 7.05407 27.2478 6.56128 26.988 6.17257C26.025 4.73144 24.8167 3.4961 23.3968 2.50083C22.4668 1.84898 21.4596 1.3135 20.4034 0.909172C20.1691 0.819502 19.9066 0.936721 19.8169 1.17092C19.7273 1.40517 19.8445 1.6677 20.0787 1.75737C21.0654 2.13506 22.0064 2.63542 22.8755 3.24459C24.2029 4.17507 25.3326 5.33 26.2328 6.67723C26.2896 6.76218 26.2763 6.87407 26.2013 6.94327C26.1325 6.99777 24.6159 8.42443 24.5242 8.47995C24.4781 8.50302 24.4336 8.50248 24.4073 8.49896C24.3704 8.49394 24.3013 8.47426 24.2543 8.39882C23.6581 7.44055 22.9138 6.58974 22.0419 5.8699C20.195 4.34509 17.8599 3.5053 15.4669 3.5053C12.9505 3.5053 10.5238 4.42331 8.63362 6.09029C7.88962 6.74638 7.24443 7.50357 6.71586 8.3407C6.6722 8.40978 6.60608 8.42679 6.57048 8.43073C6.53325 8.43497 6.46168 8.43273 6.40016 8.37115L4.82346 6.79439C4.75323 6.72409 4.74336 6.61335 4.80003 6.53095C5.46853 5.55947 6.26648 4.68251 7.17171 3.92441C9.49453 1.9794 12.4405 0.908203 15.4669 0.908203C16.2993 0.908203 17.1323 0.988125 17.9427 1.14579C18.1888 1.19368 18.4273 1.03293 18.4751 0.786746C18.523 0.540563 18.3623 0.302189 18.1161 0.254297C17.2487 0.0855527 16.3574 0 15.4669 0C12.2277 0 9.07464 1.14652 6.58865 3.22824C5.62044 4.03908 4.76691 4.97713 4.05185 6.01624C3.778 6.41428 3.79495 6.93625 4.07631 7.31376C3.62536 8.08731 3.25288 8.90263 2.96794 9.74248C2.88736 9.97994 3.01463 10.2378 3.25209 10.3184C3.30047 10.3348 3.34963 10.3426 3.39801 10.3426C3.58722 10.3426 3.76383 10.2233 3.82801 10.0343C4.06657 9.33112 4.37184 8.64658 4.73622 7.99158L5.70593 8.96136C4.93578 10.5026 4.52981 12.2185 4.52981 13.9492V23.4032L2.02214 22.1737C1.72673 22.0289 1.53583 21.7228 1.53583 21.3938V17.2131C1.53583 16.8841 1.72673 16.578 2.02214 16.4331C2.17545 16.3512 2.48478 16.2163 2.74077 16.0806C3.01747 15.9322 3.18936 15.6449 3.18936 15.3307V13.9546C3.18609 13.3703 3.22642 12.7805 3.30919 12.2017C3.34473 11.9534 3.17223 11.7234 2.92399 11.6879C2.67605 11.6523 2.44573 11.8249 2.41019 12.0731C2.32106 12.696 2.27771 13.3307 2.28116 13.9571V15.2964C2.16757 15.3591 1.79025 15.5296 1.60582 15.6259C1.01101 15.9254 0.627686 16.5463 0.627686 17.2131V21.3938C0.627686 22.0667 1.01815 22.693 1.62235 22.9892L4.65139 24.4743C4.96974 25.4403 5.88025 26.1399 6.95163 26.1399C8.28699 26.1399 9.37338 25.0536 9.37338 23.7182V15.5501C9.37338 14.2148 8.28699 13.1284 6.95163 13.1284C6.38139 13.1284 5.85694 13.327 5.44268 13.658C5.48554 12.1569 5.85888 10.6762 6.53161 9.33996C6.57793 9.34051 6.62449 9.33857 6.67129 9.3333C7.00763 9.29576 7.30383 9.11073 7.48389 8.82549C7.96627 8.06145 8.55527 7.37031 9.23442 6.77138C10.9586 5.25087 13.172 4.41344 15.4669 4.41344C17.6495 4.41344 19.7791 5.17936 21.4637 6.57018C22.2596 7.2273 22.9391 8.00387 23.4832 8.87847C23.661 9.16425 23.9535 9.35395 24.2856 9.39887C24.3357 9.40565 24.3858 9.40898 24.4356 9.40898C24.4575 9.40898 24.4793 9.40723 24.501 9.40596C25.1529 10.7245 25.5152 12.182 25.5574 13.658C25.1432 13.3269 24.6187 13.1283 24.0484 13.1283C22.7131 13.1283 21.6267 14.2147 21.6267 15.5501V16.912C21.6267 17.1627 21.83 17.3661 22.0808 17.3661C22.3316 17.3661 22.5349 17.1627 22.5349 16.912V15.5501C22.5349 14.7155 23.2139 14.0365 24.0484 14.0365C24.883 14.0365 25.562 14.7155 25.562 15.5501V23.7181C25.562 24.5527 24.883 25.2316 24.0484 25.2316C23.2139 25.2316 22.5349 24.5527 22.5349 23.7181V19.2016C22.5349 18.9508 22.3316 18.7475 22.0808 18.7475C21.83 18.7475 21.6267 18.9508 21.6267 19.2016V23.7181C21.6267 25.0535 22.7131 26.1398 24.0484 26.1398C24.6208 26.1398 25.147 25.9399 25.562 25.6066V26.6883C25.562 27.015 25.2961 27.2809 24.9694 27.2809H19.5286C19.3871 26.862 18.9912 26.5592 18.5252 26.5592H15.0915C14.5073 26.5592 14.032 27.0345 14.032 27.6188V29.9404C14.032 30.5246 14.5073 31 15.0915 31H18.5252C18.9896 31 19.3843 30.6992 19.527 30.2825H22.4752C22.726 30.2825 22.9293 30.0792 22.9293 29.8284C22.9293 29.5776 22.726 29.3743 22.4752 29.3743H19.5848V28.1892H24.9694C25.7969 28.1892 26.4702 27.5159 26.4702 26.6884V24.4146L27.6553 23.8336V27.8659C27.6553 28.6976 26.9787 29.3743 26.1469 29.3743H24.7405C24.4898 29.3743 24.2864 29.5776 24.2864 29.8284C24.2864 30.0792 24.4898 30.2825 24.7405 30.2825H26.1469C27.4794 30.2825 28.5635 29.1984 28.5635 27.8659V23.3883L29.3777 22.9892C29.9819 22.693 30.3724 22.0667 30.3724 21.3938V17.2131C30.3724 16.5402 29.9819 15.914 29.3777 15.6177ZM6.95156 14.0366C7.78614 14.0366 8.46512 14.7156 8.46512 15.5502V23.7183C8.46512 24.5528 7.78614 25.2318 6.95156 25.2318C6.11699 25.2318 5.43801 24.5528 5.43801 23.7183V15.5501C5.43801 14.7156 6.11699 14.0366 6.95156 14.0366ZM14.9401 29.9404V27.6189C14.9401 27.5354 15.0081 27.4675 15.0915 27.4675H16.3542V30.0918H15.0915C15.0081 30.0918 14.9401 30.0239 14.9401 29.9404ZM18.6765 29.9404C18.6765 30.0239 18.6086 30.0918 18.5252 30.0918H17.2625V27.4675H18.5252C18.6086 27.4675 18.6765 27.5354 18.6765 27.6189V29.9404ZM29.4642 21.3938C29.4642 21.7228 29.2733 22.029 28.9778 22.1738L26.4702 23.4032C26.4702 22.2451 26.4702 14.8924 26.4702 13.9492C26.4702 12.2333 26.0708 10.5301 25.3129 8.9989L26.3049 8.08343C27.2468 9.84874 27.7431 11.8264 27.7446 13.8386C27.7413 14.2157 27.7504 14.7214 27.744 15.331C27.7411 15.6316 27.9135 15.9113 28.1832 16.0436L28.9779 16.4332C29.2733 16.578 29.4642 16.8842 29.4642 17.2132V21.3938H29.4642Z" fill="#0A0A0A" fill-opacity="0.87"/>
<path d="M19.5839 14.0206C19.5511 13.6276 19.322 13.3092 19.0002 13.2095C18.8485 13.1625 18.4557 13.1025 18.0834 13.5593C17.7373 13.9841 15.9979 17.1266 15.6527 17.7522C15.5751 17.8928 15.5776 18.0641 15.6592 18.2024C15.7409 18.3408 15.8896 18.4257 16.0503 18.4257H18.6724C18.669 18.9075 18.6653 19.3724 18.6618 19.7849C18.6596 20.0357 18.8611 20.2407 19.1119 20.2429H19.1159C19.3648 20.2429 19.5678 20.0422 19.5699 19.7927C19.5713 19.6314 19.5758 19.1027 19.5806 18.4256H19.9169C20.1677 18.4256 20.371 18.2223 20.371 17.9715C20.371 17.7207 20.1677 17.5174 19.9169 17.5174H19.5867C19.5961 15.9932 19.6024 14.2427 19.5839 14.0206ZM18.6785 17.5175H16.8214C17.5033 16.2929 18.3566 14.7884 18.6843 14.2818C18.6914 14.7801 18.6868 16.1286 18.6785 17.5175Z" fill="#0A0A0A" fill-opacity="0.87"/>
<path d="M14.9195 19.8292C14.9163 19.5785 14.7129 19.3794 14.4597 19.3809C13.6325 19.3913 12.746 19.3971 12.1391 19.3945C12.4799 18.9462 13.0375 18.2022 13.8913 16.9822C14.3035 16.3704 14.6176 15.7922 14.6585 15.1468C14.6585 14.0277 13.748 13.1172 12.6288 13.1172C11.6611 13.1172 10.8236 13.8055 10.6373 14.754C10.5889 15 10.7493 15.2387 10.9953 15.2871C11.2415 15.3353 11.4801 15.1751 11.5284 14.929C11.6313 14.4054 12.0941 14.0254 12.6288 14.0254C13.2383 14.0254 13.7358 14.5142 13.75 15.1203C13.7153 15.5296 13.4912 15.9467 13.1472 16.4614C12.1691 17.8589 11.5851 18.6236 11.2714 19.0344C10.8983 19.5229 10.7857 19.6704 10.8678 19.9374C10.9143 20.0884 11.0295 20.2046 11.1841 20.2561C11.5 20.3409 13.448 20.2936 14.471 20.289C14.7219 20.2858 14.9226 20.08 14.9195 19.8292Z" fill="#0A0A0A" fill-opacity="0.87"/>
</g>
<defs>
<clipPath id="clip0_126_0">
<rect width="31" height="31" fill="white"/>
</clipPath>
</defs>
</svg>
