<svg width="32" height="32" viewBox="0 0 32 32" fill="none" xmlns="http://www.w3.org/2000/svg">
<path d="M30 5.28101V9.93001C30 10.2202 29.8848 10.4984 29.6796 10.7036C29.4744 10.9088 29.1962 11.024 28.906 11.024C28.6159 11.024 28.3376 10.9088 28.1325 10.7036C27.9273 10.4984 27.812 10.2202 27.812 9.93001V5.73401L21.094 12.453C20.9927 12.5551 20.8722 12.636 20.7395 12.6913C20.6067 12.7466 20.4643 12.775 20.3205 12.775C20.1767 12.775 20.0344 12.7466 19.9016 12.6913C19.7688 12.636 19.6483 12.5551 19.547 12.453C19.4453 12.3515 19.3647 12.2309 19.3096 12.0982C19.2546 11.9655 19.2263 11.8232 19.2263 11.6795C19.2263 11.5358 19.2546 11.3936 19.3096 11.2608C19.3647 11.1281 19.4453 11.0075 19.547 10.906L26.266 4.18701H22.07C21.9236 4.19144 21.7779 4.16643 21.6413 4.11347C21.5048 4.06051 21.3803 3.98067 21.2752 3.87869C21.1701 3.77671 21.0865 3.65467 21.0294 3.5198C20.9724 3.38492 20.943 3.23996 20.943 3.09351C20.943 2.94706 20.9724 2.8021 21.0294 2.66723C21.0865 2.53235 21.1701 2.41031 21.2752 2.30833C21.3803 2.20635 21.5048 2.12652 21.6413 2.07355C21.7779 2.02059 21.9236 1.99558 22.07 2.00001H26.719C27.5889 2.00107 28.4228 2.34709 29.0379 2.96216C29.653 3.57724 29.999 4.41116 30 5.28101ZM28.727 21.715C27.199 20.243 25.92 19.392 24.699 19.04C23.018 18.554 21.46 18.996 20.071 20.353L20.064 20.359L18.584 21.829C17.664 21.312 15.878 20.175 13.923 18.221L13.779 18.077C11.837 16.135 10.693 14.337 10.173 13.415L11.641 11.935L11.647 11.929C13.004 10.539 13.447 8.98201 12.96 7.30101C12.608 6.08101 11.757 4.80101 10.284 3.27301C9.53681 2.4954 8.51583 2.0398 7.43803 2.00301C6.36035 1.96207 5.30919 2.34307 4.50803 3.06501L4.47703 3.09301C4.46233 3.10595 4.44799 3.11929 4.43403 3.13301C2.83003 4.74001 1.98703 6.98701 2.00003 9.63301C2.02303 14.13 4.49403 19.273 8.61003 23.389L8.62103 23.399C9.4415 24.2128 10.314 24.9724 11.233 25.673C11.4639 25.8386 11.7503 25.9079 12.0314 25.8662C12.3125 25.8245 12.5663 25.675 12.7391 25.4494C12.9119 25.2238 12.9902 24.9398 12.9573 24.6575C12.9245 24.3753 12.7831 24.1169 12.563 23.937C11.7163 23.2917 10.9126 22.5919 10.157 21.842L10.147 21.832C6.43503 18.116 4.20703 13.552 4.18703 9.62201C4.17703 7.58401 4.79103 5.88201 5.96103 4.70001L5.96903 4.69301C6.34868 4.34956 6.84729 4.16767 7.35891 4.18597C7.87054 4.20426 8.35488 4.42132 8.70903 4.79101C11.541 7.72801 11.336 9.11401 10.085 10.398L8.05803 12.44C7.74003 12.76 7.65103 13.243 7.83503 13.656C7.88603 13.771 9.13103 16.523 12.233 19.624L12.376 19.768C15.477 22.868 18.229 24.113 18.344 24.165C18.757 24.349 19.239 24.26 19.56 23.942L21.602 21.915C22.885 20.664 24.272 20.458 27.209 23.29C27.978 24.032 28.021 25.235 27.307 26.03L27.3 26.039C26.127 27.199 24.443 27.812 22.427 27.812H22.377C20.765 27.804 18.899 27.362 16.98 26.535C16.8473 26.4724 16.7033 26.4372 16.5567 26.4314C16.4101 26.4256 16.2638 26.4494 16.1266 26.5013C15.9893 26.5532 15.8639 26.6322 15.7578 26.7335C15.6517 26.8349 15.5671 26.9566 15.509 27.0913C15.4509 27.2261 15.4204 27.3711 15.4195 27.5179C15.4186 27.6646 15.4473 27.81 15.5037 27.9454C15.5602 28.0809 15.6433 28.2036 15.7481 28.3062C15.853 28.4089 15.9774 28.4894 16.114 28.543C18.332 29.5 20.436 29.99 22.366 30H22.428C25.048 30 27.273 29.159 28.867 27.566C28.8808 27.5521 28.8941 27.5378 28.907 27.523L28.935 27.492C29.657 26.6908 30.038 25.6397 29.997 24.562C29.9605 23.4839 29.5049 22.4625 28.727 21.715Z" fill="#0081CD"/>
</svg>
