<svg width="31" height="31" viewBox="0 0 31 31" fill="none" xmlns="http://www.w3.org/2000/svg">
<g clip-path="url(#clip0_126_10)">
<path d="M15.5 0C6.9533 0 0 6.9533 0 15.5C0 19.2432 1.33403 22.6806 3.55157 25.3621C3.55725 25.3699 3.55777 25.3797 3.56397 25.3869C5.16512 27.3177 7.17598 28.798 9.41677 29.7543C9.4426 29.7652 9.46792 29.777 9.49375 29.7879C9.6751 29.8644 9.85852 29.9352 10.0424 30.0044C10.1148 30.0318 10.1871 30.0597 10.2605 30.086C10.4191 30.1428 10.5787 30.1966 10.7394 30.2482C10.8422 30.2813 10.9451 30.3139 11.0489 30.3449C11.191 30.3872 11.3336 30.428 11.4772 30.4668C11.6033 30.5009 11.7304 30.5324 11.8575 30.5629C11.9861 30.5939 12.1153 30.6249 12.245 30.6523C12.3897 30.6833 12.5359 30.7107 12.6826 30.7375C12.8004 30.7592 12.9177 30.782 13.0365 30.8011C13.1993 30.8274 13.3631 30.8481 13.5274 30.8693C13.6333 30.8827 13.7387 30.8982 13.8451 30.9096C14.0311 30.9292 14.2187 30.9432 14.4067 30.9561C14.4941 30.9623 14.5808 30.9716 14.6687 30.9762C14.943 30.9917 15.2205 31 15.5 31C15.7795 31 16.057 30.9917 16.3323 30.9773C16.4202 30.9726 16.507 30.9633 16.5943 30.9571C16.7824 30.9437 16.9699 30.9302 17.1559 30.9106C17.2624 30.8992 17.3678 30.8837 17.4737 30.8703C17.638 30.8491 17.8018 30.8285 17.9645 30.8021C18.0828 30.783 18.2006 30.7603 18.3184 30.7386C18.4646 30.7117 18.6108 30.6843 18.756 30.6533C18.8857 30.6254 19.0144 30.5949 19.1435 30.5639C19.2706 30.5329 19.3977 30.5014 19.5238 30.4678C19.6674 30.4296 19.81 30.3883 19.9521 30.3459C20.056 30.3149 20.1588 30.2823 20.2616 30.2493C20.4223 30.1976 20.5819 30.1439 20.7406 30.087C20.8134 30.0607 20.8857 30.0328 20.9586 30.0054C21.143 29.9362 21.3259 29.8649 21.5073 29.7889C21.5331 29.7781 21.5584 29.7662 21.5843 29.7553C23.8245 28.799 25.8359 27.3187 27.4371 25.388C27.4433 25.3807 27.4438 25.3704 27.4495 25.3632C29.666 22.6806 31 19.2432 31 15.5C31 6.9533 24.0467 0 15.5 0ZM21.7811 28.5303C21.7734 28.5339 21.7661 28.5381 21.7584 28.5417C21.5739 28.6306 21.3864 28.7143 21.1973 28.7959C21.1544 28.814 21.112 28.8326 21.0691 28.8507C20.9038 28.9199 20.7364 28.9855 20.568 29.0485C20.4977 29.0749 20.4275 29.1007 20.3567 29.1255C20.2073 29.1787 20.0575 29.2299 19.9061 29.2785C19.8121 29.3084 19.7175 29.3368 19.623 29.3647C19.4887 29.405 19.3538 29.4438 19.2174 29.48C19.1027 29.5104 18.987 29.5383 18.8713 29.5657C18.7498 29.5947 18.6289 29.6241 18.5065 29.65C18.3727 29.6784 18.2378 29.7026 18.1035 29.7269C17.9945 29.7471 17.886 29.7683 17.7759 29.7858C17.6245 29.8096 17.4716 29.8287 17.3192 29.8478C17.2226 29.8602 17.1265 29.8747 17.0288 29.885C16.8547 29.9036 16.679 29.9155 16.5039 29.9279C16.4259 29.9331 16.3484 29.9419 16.2693 29.946C16.0136 29.9594 15.7573 29.9667 15.5 29.9667C15.2427 29.9667 14.9864 29.9594 14.7312 29.946C14.6527 29.9419 14.5752 29.9336 14.4966 29.9279C14.321 29.916 14.1458 29.9036 13.9717 29.885C13.874 29.8747 13.7779 29.8602 13.6813 29.8478C13.5289 29.8287 13.376 29.8096 13.2246 29.7858C13.1145 29.7683 13.006 29.7471 12.897 29.7269C12.7622 29.7026 12.6273 29.6778 12.494 29.65C12.3716 29.6241 12.2502 29.5947 12.1293 29.5657C12.0135 29.5378 11.8978 29.5104 11.7831 29.48C11.6472 29.4438 11.5118 29.4045 11.3775 29.3647C11.283 29.3368 11.1884 29.3084 11.0944 29.2785C10.943 29.2299 10.7926 29.1787 10.6438 29.1255C10.5731 29.1002 10.5028 29.0744 10.4325 29.0485C10.2641 28.9855 10.0967 28.9199 9.93137 28.8507C9.88848 28.8331 9.84663 28.8145 9.80375 28.7964C9.61465 28.7153 9.4271 28.6311 9.24213 28.5422C9.23438 28.5386 9.22715 28.535 9.2194 28.5308C7.41675 27.6587 5.82438 26.4208 4.5322 24.9173C5.53092 21.2397 8.35812 18.275 11.9954 17.0955C12.0673 17.1394 12.1422 17.1786 12.2161 17.22C12.2595 17.2443 12.3024 17.2701 12.3463 17.2934C12.5002 17.375 12.6563 17.4514 12.8159 17.5202C12.9384 17.5739 13.0649 17.6194 13.191 17.6659C13.2158 17.6747 13.2406 17.6845 13.2654 17.6932C13.966 17.9412 14.7157 18.0833 15.5 18.0833C16.2843 18.0833 17.034 17.9412 17.7341 17.6932C17.7589 17.6845 17.7837 17.6747 17.8085 17.6659C17.9345 17.6194 18.0611 17.5739 18.1836 17.5202C18.3432 17.4514 18.4993 17.375 18.6532 17.2934C18.6971 17.2696 18.74 17.2443 18.7834 17.22C18.8573 17.1786 18.9327 17.1394 19.0051 17.0949C22.6424 18.275 25.4691 21.2397 26.4683 24.9168C25.1761 26.4198 23.5838 27.6577 21.7811 28.5303ZM9.81667 11.3667C9.81667 8.23308 12.3664 5.68333 15.5 5.68333C18.6336 5.68333 21.1833 8.23308 21.1833 11.3667C21.1833 13.36 20.1495 15.114 18.5917 16.1288C18.3882 16.261 18.1763 16.3794 17.9588 16.4827C17.933 16.4951 17.9077 16.508 17.8818 16.5199C16.3856 17.2003 14.6144 17.2003 13.1182 16.5199C13.0923 16.508 13.0665 16.4951 13.0412 16.4827C12.8231 16.3794 12.6118 16.261 12.4083 16.1288C10.8505 15.114 9.81667 13.36 9.81667 11.3667ZM27.2433 23.9335C26.072 20.475 23.3998 17.6798 19.9857 16.352C21.3512 15.1218 22.2167 13.3455 22.2167 11.3667C22.2167 7.6632 19.2035 4.65 15.5 4.65C11.7965 4.65 8.78333 7.6632 8.78333 11.3667C8.78333 13.3455 9.64875 15.1218 11.0148 16.352C7.60068 17.6803 4.92848 20.475 3.7572 23.9335C2.04548 21.5574 1.03333 18.6455 1.03333 15.5C1.03333 7.52318 7.52318 1.03333 15.5 1.03333C23.4768 1.03333 29.9667 7.52318 29.9667 15.5C29.9667 18.6455 28.9545 21.5574 27.2433 23.9335Z" fill="#0A0A0A" fill-opacity="0.87"/>
</g>
<defs>
<clipPath id="clip0_126_10">
<rect width="31" height="31" fill="white"/>
</clipPath>
</defs>
</svg>
