<svg width="31" height="31" viewBox="0 0 31 31" fill="none" xmlns="http://www.w3.org/2000/svg">
<path d="M29.6509 6.84586C28.8185 6.01346 27.6704 5.49679 26.4074 5.49679H21.4417V3.91809C21.4417 3.2579 21.1833 2.65512 20.7528 2.22457L20.7241 2.19586C20.2648 1.7366 19.662 1.47827 19.0019 1.47827H12.0269C11.338 1.47827 10.7352 1.76531 10.3046 2.19586C9.84537 2.65512 9.58704 3.2579 9.58704 3.91809V5.49679H4.59259C3.32963 5.49679 2.18148 6.01346 1.34907 6.84586C0.516667 7.67827 0 8.82642 0 10.0894V24.9292C0 26.1922 0.516667 27.3403 1.34907 28.1727C2.18148 29.0051 3.32963 29.5218 4.59259 29.5218H26.4074C27.6704 29.5218 28.8185 29.0051 29.6509 28.1727C30.4833 27.3403 31 26.1922 31 24.9292V10.0894C31 8.82642 30.4833 7.67827 29.6509 6.84586ZM10.6778 3.91809H10.7065C10.7065 3.54494 10.85 3.2292 11.0796 2.99957C11.3093 2.76994 11.6537 2.62642 11.9981 2.62642H18.9444C19.3176 2.62642 19.6333 2.76994 19.863 2.99957L19.8917 3.02827C20.1213 3.2579 20.2648 3.57364 20.2648 3.91809V5.49679H19.1167V4.98012C19.1167 4.57827 18.9444 4.20512 18.6287 3.91809L18.6 3.88938C18.313 3.63105 17.9111 3.45883 17.4519 3.45883H13.4907C13.0602 3.45883 12.6583 3.63105 12.3426 3.88938C12.0269 4.17642 11.8259 4.54957 11.8259 4.98012V5.49679H10.6778V3.91809ZM18.0546 5.00883V5.49679H18.0259H12.9741V4.98012C12.9741 4.89401 13.0315 4.8079 13.0889 4.75049C13.175 4.66438 13.3185 4.60698 13.4907 4.60698H17.5093C17.6528 4.60698 17.7963 4.66438 17.9111 4.75049L17.9398 4.7792C17.9972 4.83661 18.0546 4.92272 18.0546 5.00883ZM28.8759 27.369C28.2444 28.0005 27.3833 28.3736 26.4361 28.3736H4.59259C3.64537 28.3736 2.78426 27.9718 2.15278 27.369C1.5213 26.7375 1.14815 25.8764 1.14815 24.9292V10.0894C1.14815 9.14216 1.55 8.28105 2.15278 7.64957C2.78426 7.01809 3.64537 6.64494 4.59259 6.64494H10.1611H12.4287H18.6H20.8676H26.4074C27.3546 6.64494 28.2157 7.04679 28.8472 7.64957C29.4787 8.28105 29.8519 9.14216 29.8519 10.0894V24.9292H29.8806C29.8806 25.8764 29.4787 26.7375 28.8759 27.369Z" fill="#0A0A0A" fill-opacity="0.87"/>
<path d="M23.4508 19.5903L22.274 18.4135C22.1304 18.27 21.9008 18.2125 21.6999 18.27L19.5471 18.9301L16.9925 16.232L22.5897 13.132C22.6471 13.1033 22.7045 13.0746 22.7619 13.0172C22.9916 12.7875 22.9916 12.4431 22.7619 12.2135L21.2406 10.6061C21.0971 10.4625 20.8675 10.4051 20.6666 10.4625L13.6342 12.6153L11.2517 10.0894L11.223 10.032C10.7925 9.60144 10.2184 9.40051 9.64434 9.40051C9.07026 9.40051 8.52489 9.60144 8.06563 10.032L8.00822 10.0894L7.95082 10.1468C7.54897 10.5774 7.31934 11.1514 7.31934 11.7255C7.31934 12.2996 7.52026 12.8737 7.95082 13.3042C7.97952 13.3329 7.97952 13.3329 8.00822 13.3616L10.5342 15.744L8.41008 22.7764C8.35267 22.9774 8.38137 23.207 8.55359 23.3505L10.1036 24.9005C10.1323 24.9292 10.1897 24.9579 10.2184 24.9866C10.5054 25.1301 10.8499 25.044 10.9934 24.757L14.1221 19.1024L16.8203 21.657L16.1888 23.7811C16.1314 23.982 16.1601 24.2116 16.3323 24.3551L17.5379 25.5607C17.5666 25.5894 17.624 25.6181 17.6527 25.6468C17.9397 25.7903 18.2841 25.7042 18.4277 25.4172L19.949 22.6903V22.6616L20.1499 22.2311L20.5517 22.0301C20.5804 22.0301 20.5804 22.0014 20.6092 22.0014L23.2786 20.5088C23.336 20.4801 23.3934 20.4514 23.4508 20.394C23.6804 20.1644 23.6804 19.8199 23.4508 19.5903ZM20.0925 21.0255L19.5184 21.3125C19.4036 21.3699 19.3175 21.4561 19.2601 21.5709L18.973 22.1449L17.8249 24.2116L17.3943 23.7811L18.0545 21.6283C18.1119 21.3987 18.0545 21.169 17.8823 21.0255L14.4092 17.7533C14.1795 17.5237 13.8064 17.5524 13.6054 17.782C13.5767 17.8107 13.548 17.8681 13.5193 17.9255L10.3906 23.494L9.61563 22.719L11.7684 15.6866C11.8258 15.457 11.7684 15.2274 11.5962 15.0838L8.84063 12.4718L8.81193 12.4431C8.611 12.2422 8.49619 11.9551 8.49619 11.6968C8.49619 11.4098 8.611 11.1227 8.81193 10.8931C8.81193 10.8931 8.81193 10.8931 8.84063 10.8644C8.86934 10.8357 8.84063 10.8644 8.86934 10.8357C9.09897 10.6348 9.386 10.52 9.67304 10.52C9.96008 10.52 10.2184 10.6061 10.4193 10.807L10.448 10.8357L13.0888 13.62C13.2323 13.7922 13.4619 13.8496 13.6629 13.7635L20.724 11.6394L21.499 12.4144L15.8443 15.5718C15.5573 15.7153 15.4712 16.0598 15.6147 16.3468C15.6434 16.3755 15.6721 16.4329 15.7008 16.4616L19.0017 19.9635C19.1453 20.1357 19.3749 20.1931 19.5758 20.107L21.7286 19.4468L22.1591 19.8774L20.0925 21.0255Z" fill="#0A0A0A" fill-opacity="0.87"/>
</svg>
